M48
;GenerationSoftware,Autodesk,EAGLE,9.7.0*%
;CreationDate,2023-03-01T08:56:01Z*%
FMAT,2
ICI,OFF
METRIC,TZ,000.000
T6C0.400
T5C0.920
T4C1.000
T3C1.340
T2C2.300
T1C3.000
%
G90
M71
T1
X2300Y2300
X2300Y37700
X37700Y2300
X37700Y37700
T2
X16730Y10160
X3590Y10160
X22640Y10160
X35780Y10160
T3
X22159Y38487
X30799Y38487
X22159Y34687
X30799Y34687
T4
X1200Y31430
X1200Y26350
X1200Y23810
X1200Y6030
X3740Y6030
X36230Y33970
X38770Y33970
X36230Y31430
X1200Y28890
X38770Y31430
X36230Y28890
X38770Y26350
X36230Y23810
X38770Y23810
X36230Y26350
X5080Y30035
X7620Y30035
X10160Y30035
X15240Y30035
X17780Y30035
X20320Y30035
X22860Y30035
X12700Y30035
X38770Y28890
X1200Y33970
T5
X32710Y12870
X30210Y12870
X28210Y12870
X9160Y12870
X11160Y12870
X6660Y12870
X13660Y12870
X25710Y12870
T6
X8890Y1270
X31750Y1270
X8827Y26098
X21463Y23939
X2540Y35171
X18098Y16955
X29273Y20193
X29527Y24892
X5080Y38100
X16891Y26225
X10351Y37139
X31750Y29781
X33338Y27940
X2984Y26098
X2413Y21082
X35497Y30162
X19685Y1334
X9271Y20574
X12319Y16129
X29845Y16256
X29083Y17590
X26352Y27940
X11811Y27495
X24447Y16955
X36957Y17780
M30