G04 EAGLE Gerber RS-274X export*
G75*
%MOMM*%
%FSLAX34Y34*%
%LPD*%
%INSolder Stop Mask Bottom*%
%IPPOS*%
%AMOC8*
5,1,8,0,0,1.08239X$1,22.5*%
G01*
G04 Define Apertures*
%ADD10C,0.000000*%
%ADD11R,1.380000X1.380000*%
%ADD12C,1.380000*%
%ADD13C,3.316000*%
%ADD14C,1.500000*%
%ADD15C,3.000000*%
%ADD16C,2.010000*%
%ADD17R,1.164600X1.465300*%
%ADD18R,1.465300X1.164600*%
D10*
X23000Y400000D02*
X22444Y399993D01*
X21889Y399973D01*
X21334Y399940D01*
X20780Y399893D01*
X20228Y399832D01*
X19677Y399759D01*
X19128Y399672D01*
X18581Y399572D01*
X18037Y399458D01*
X17496Y399332D01*
X16958Y399192D01*
X16423Y399040D01*
X15893Y398874D01*
X15366Y398696D01*
X14844Y398505D01*
X14327Y398302D01*
X13815Y398086D01*
X13308Y397858D01*
X12807Y397618D01*
X12311Y397365D01*
X11822Y397101D01*
X11340Y396825D01*
X10864Y396538D01*
X10396Y396239D01*
X9935Y395929D01*
X9481Y395607D01*
X9035Y395275D01*
X8598Y394933D01*
X8169Y394579D01*
X7748Y394216D01*
X7337Y393842D01*
X6934Y393459D01*
X6541Y393066D01*
X6158Y392663D01*
X5784Y392252D01*
X5421Y391831D01*
X5067Y391402D01*
X4725Y390965D01*
X4393Y390519D01*
X4071Y390065D01*
X3761Y389604D01*
X3462Y389136D01*
X3175Y388660D01*
X2899Y388178D01*
X2635Y387689D01*
X2382Y387193D01*
X2142Y386692D01*
X1914Y386185D01*
X1698Y385673D01*
X1495Y385156D01*
X1304Y384634D01*
X1126Y384107D01*
X960Y383577D01*
X808Y383042D01*
X668Y382504D01*
X542Y381963D01*
X428Y381419D01*
X328Y380872D01*
X241Y380323D01*
X168Y379772D01*
X107Y379220D01*
X60Y378666D01*
X27Y378111D01*
X7Y377556D01*
X0Y377000D01*
X23000Y400000D02*
X377000Y400000D01*
X377556Y399993D01*
X378111Y399973D01*
X378666Y399940D01*
X379220Y399893D01*
X379772Y399832D01*
X380323Y399759D01*
X380872Y399672D01*
X381419Y399572D01*
X381963Y399458D01*
X382504Y399332D01*
X383042Y399192D01*
X383577Y399040D01*
X384107Y398874D01*
X384634Y398696D01*
X385156Y398505D01*
X385673Y398302D01*
X386185Y398086D01*
X386692Y397858D01*
X387193Y397618D01*
X387689Y397365D01*
X388178Y397101D01*
X388660Y396825D01*
X389136Y396538D01*
X389604Y396239D01*
X390065Y395929D01*
X390519Y395607D01*
X390965Y395275D01*
X391402Y394933D01*
X391831Y394579D01*
X392252Y394216D01*
X392663Y393842D01*
X393066Y393459D01*
X393459Y393066D01*
X393842Y392663D01*
X394216Y392252D01*
X394579Y391831D01*
X394933Y391402D01*
X395275Y390965D01*
X395607Y390519D01*
X395929Y390065D01*
X396239Y389604D01*
X396538Y389136D01*
X396825Y388660D01*
X397101Y388178D01*
X397365Y387689D01*
X397618Y387193D01*
X397858Y386692D01*
X398086Y386185D01*
X398302Y385673D01*
X398505Y385156D01*
X398696Y384634D01*
X398874Y384107D01*
X399040Y383577D01*
X399192Y383042D01*
X399332Y382504D01*
X399458Y381963D01*
X399572Y381419D01*
X399672Y380872D01*
X399759Y380323D01*
X399832Y379772D01*
X399893Y379220D01*
X399940Y378666D01*
X399973Y378111D01*
X399993Y377556D01*
X400000Y377000D01*
X400000Y23000D01*
X399993Y22444D01*
X399973Y21889D01*
X399940Y21334D01*
X399893Y20780D01*
X399832Y20228D01*
X399759Y19677D01*
X399672Y19128D01*
X399572Y18581D01*
X399458Y18037D01*
X399332Y17496D01*
X399192Y16958D01*
X399040Y16423D01*
X398874Y15893D01*
X398696Y15366D01*
X398505Y14844D01*
X398302Y14327D01*
X398086Y13815D01*
X397858Y13308D01*
X397618Y12807D01*
X397365Y12311D01*
X397101Y11822D01*
X396825Y11340D01*
X396538Y10864D01*
X396239Y10396D01*
X395929Y9935D01*
X395607Y9481D01*
X395275Y9035D01*
X394933Y8598D01*
X394579Y8169D01*
X394216Y7748D01*
X393842Y7337D01*
X393459Y6934D01*
X393066Y6541D01*
X392663Y6158D01*
X392252Y5784D01*
X391831Y5421D01*
X391402Y5067D01*
X390965Y4725D01*
X390519Y4393D01*
X390065Y4071D01*
X389604Y3761D01*
X389136Y3462D01*
X388660Y3175D01*
X388178Y2899D01*
X387689Y2635D01*
X387193Y2382D01*
X386692Y2142D01*
X386185Y1914D01*
X385673Y1698D01*
X385156Y1495D01*
X384634Y1304D01*
X384107Y1126D01*
X383577Y960D01*
X383042Y808D01*
X382504Y668D01*
X381963Y542D01*
X381419Y428D01*
X380872Y328D01*
X380323Y241D01*
X379772Y168D01*
X379220Y107D01*
X378666Y60D01*
X378111Y27D01*
X377556Y7D01*
X377000Y0D01*
X23000Y0D01*
X22444Y7D01*
X21889Y27D01*
X21334Y60D01*
X20780Y107D01*
X20228Y168D01*
X19677Y241D01*
X19128Y328D01*
X18581Y428D01*
X18037Y542D01*
X17496Y668D01*
X16958Y808D01*
X16423Y960D01*
X15893Y1126D01*
X15366Y1304D01*
X14844Y1495D01*
X14327Y1698D01*
X13815Y1914D01*
X13308Y2142D01*
X12807Y2382D01*
X12311Y2635D01*
X11822Y2899D01*
X11340Y3175D01*
X10864Y3462D01*
X10396Y3761D01*
X9935Y4071D01*
X9481Y4393D01*
X9035Y4725D01*
X8598Y5067D01*
X8169Y5421D01*
X7748Y5784D01*
X7337Y6158D01*
X6934Y6541D01*
X6541Y6934D01*
X6158Y7337D01*
X5784Y7748D01*
X5421Y8169D01*
X5067Y8598D01*
X4725Y9035D01*
X4393Y9481D01*
X4071Y9935D01*
X3761Y10396D01*
X3462Y10864D01*
X3175Y11340D01*
X2899Y11822D01*
X2635Y12311D01*
X2382Y12807D01*
X2142Y13308D01*
X1914Y13815D01*
X1698Y14327D01*
X1495Y14844D01*
X1304Y15366D01*
X1126Y15893D01*
X960Y16423D01*
X808Y16958D01*
X668Y17496D01*
X542Y18037D01*
X428Y18581D01*
X328Y19128D01*
X241Y19677D01*
X168Y20228D01*
X107Y20780D01*
X60Y21334D01*
X27Y21889D01*
X7Y22444D01*
X0Y23000D01*
X0Y377000D01*
D11*
X257100Y128700D03*
D12*
X282100Y128700D03*
X302100Y128700D03*
X327100Y128700D03*
D13*
X226400Y101600D03*
X357800Y101600D03*
D11*
X66600Y128700D03*
D12*
X91600Y128700D03*
X111600Y128700D03*
X136600Y128700D03*
D13*
X35900Y101600D03*
X167300Y101600D03*
D14*
X12000Y339700D03*
X12000Y314300D03*
X12000Y288900D03*
X12000Y263500D03*
X12000Y238100D03*
X12000Y60300D03*
X37400Y60300D03*
X362300Y339700D03*
X387700Y339700D03*
X362300Y314300D03*
X387700Y314300D03*
X362300Y288900D03*
X387700Y288900D03*
X387700Y263500D03*
X362300Y238100D03*
X387700Y238100D03*
D10*
X8000Y23000D02*
X8005Y23368D01*
X8018Y23736D01*
X8041Y24103D01*
X8072Y24470D01*
X8113Y24836D01*
X8162Y25201D01*
X8221Y25564D01*
X8288Y25926D01*
X8364Y26287D01*
X8450Y26645D01*
X8543Y27001D01*
X8646Y27354D01*
X8757Y27705D01*
X8877Y28053D01*
X9005Y28398D01*
X9142Y28740D01*
X9287Y29079D01*
X9440Y29413D01*
X9602Y29744D01*
X9771Y30071D01*
X9949Y30393D01*
X10134Y30712D01*
X10327Y31025D01*
X10528Y31334D01*
X10736Y31637D01*
X10952Y31935D01*
X11175Y32228D01*
X11405Y32516D01*
X11642Y32798D01*
X11886Y33073D01*
X12136Y33343D01*
X12393Y33607D01*
X12657Y33864D01*
X12927Y34114D01*
X13202Y34358D01*
X13484Y34595D01*
X13772Y34825D01*
X14065Y35048D01*
X14363Y35264D01*
X14666Y35472D01*
X14975Y35673D01*
X15288Y35866D01*
X15607Y36051D01*
X15929Y36229D01*
X16256Y36398D01*
X16587Y36560D01*
X16921Y36713D01*
X17260Y36858D01*
X17602Y36995D01*
X17947Y37123D01*
X18295Y37243D01*
X18646Y37354D01*
X18999Y37457D01*
X19355Y37550D01*
X19713Y37636D01*
X20074Y37712D01*
X20436Y37779D01*
X20799Y37838D01*
X21164Y37887D01*
X21530Y37928D01*
X21897Y37959D01*
X22264Y37982D01*
X22632Y37995D01*
X23000Y38000D01*
X23368Y37995D01*
X23736Y37982D01*
X24103Y37959D01*
X24470Y37928D01*
X24836Y37887D01*
X25201Y37838D01*
X25564Y37779D01*
X25926Y37712D01*
X26287Y37636D01*
X26645Y37550D01*
X27001Y37457D01*
X27354Y37354D01*
X27705Y37243D01*
X28053Y37123D01*
X28398Y36995D01*
X28740Y36858D01*
X29079Y36713D01*
X29413Y36560D01*
X29744Y36398D01*
X30071Y36229D01*
X30393Y36051D01*
X30712Y35866D01*
X31025Y35673D01*
X31334Y35472D01*
X31637Y35264D01*
X31935Y35048D01*
X32228Y34825D01*
X32516Y34595D01*
X32798Y34358D01*
X33073Y34114D01*
X33343Y33864D01*
X33607Y33607D01*
X33864Y33343D01*
X34114Y33073D01*
X34358Y32798D01*
X34595Y32516D01*
X34825Y32228D01*
X35048Y31935D01*
X35264Y31637D01*
X35472Y31334D01*
X35673Y31025D01*
X35866Y30712D01*
X36051Y30393D01*
X36229Y30071D01*
X36398Y29744D01*
X36560Y29413D01*
X36713Y29079D01*
X36858Y28740D01*
X36995Y28398D01*
X37123Y28053D01*
X37243Y27705D01*
X37354Y27354D01*
X37457Y27001D01*
X37550Y26645D01*
X37636Y26287D01*
X37712Y25926D01*
X37779Y25564D01*
X37838Y25201D01*
X37887Y24836D01*
X37928Y24470D01*
X37959Y24103D01*
X37982Y23736D01*
X37995Y23368D01*
X38000Y23000D01*
X37995Y22632D01*
X37982Y22264D01*
X37959Y21897D01*
X37928Y21530D01*
X37887Y21164D01*
X37838Y20799D01*
X37779Y20436D01*
X37712Y20074D01*
X37636Y19713D01*
X37550Y19355D01*
X37457Y18999D01*
X37354Y18646D01*
X37243Y18295D01*
X37123Y17947D01*
X36995Y17602D01*
X36858Y17260D01*
X36713Y16921D01*
X36560Y16587D01*
X36398Y16256D01*
X36229Y15929D01*
X36051Y15607D01*
X35866Y15288D01*
X35673Y14975D01*
X35472Y14666D01*
X35264Y14363D01*
X35048Y14065D01*
X34825Y13772D01*
X34595Y13484D01*
X34358Y13202D01*
X34114Y12927D01*
X33864Y12657D01*
X33607Y12393D01*
X33343Y12136D01*
X33073Y11886D01*
X32798Y11642D01*
X32516Y11405D01*
X32228Y11175D01*
X31935Y10952D01*
X31637Y10736D01*
X31334Y10528D01*
X31025Y10327D01*
X30712Y10134D01*
X30393Y9949D01*
X30071Y9771D01*
X29744Y9602D01*
X29413Y9440D01*
X29079Y9287D01*
X28740Y9142D01*
X28398Y9005D01*
X28053Y8877D01*
X27705Y8757D01*
X27354Y8646D01*
X27001Y8543D01*
X26645Y8450D01*
X26287Y8364D01*
X25926Y8288D01*
X25564Y8221D01*
X25201Y8162D01*
X24836Y8113D01*
X24470Y8072D01*
X24103Y8041D01*
X23736Y8018D01*
X23368Y8005D01*
X23000Y8000D01*
X22632Y8005D01*
X22264Y8018D01*
X21897Y8041D01*
X21530Y8072D01*
X21164Y8113D01*
X20799Y8162D01*
X20436Y8221D01*
X20074Y8288D01*
X19713Y8364D01*
X19355Y8450D01*
X18999Y8543D01*
X18646Y8646D01*
X18295Y8757D01*
X17947Y8877D01*
X17602Y9005D01*
X17260Y9142D01*
X16921Y9287D01*
X16587Y9440D01*
X16256Y9602D01*
X15929Y9771D01*
X15607Y9949D01*
X15288Y10134D01*
X14975Y10327D01*
X14666Y10528D01*
X14363Y10736D01*
X14065Y10952D01*
X13772Y11175D01*
X13484Y11405D01*
X13202Y11642D01*
X12927Y11886D01*
X12657Y12136D01*
X12393Y12393D01*
X12136Y12657D01*
X11886Y12927D01*
X11642Y13202D01*
X11405Y13484D01*
X11175Y13772D01*
X10952Y14065D01*
X10736Y14363D01*
X10528Y14666D01*
X10327Y14975D01*
X10134Y15288D01*
X9949Y15607D01*
X9771Y15929D01*
X9602Y16256D01*
X9440Y16587D01*
X9287Y16921D01*
X9142Y17260D01*
X9005Y17602D01*
X8877Y17947D01*
X8757Y18295D01*
X8646Y18646D01*
X8543Y18999D01*
X8450Y19355D01*
X8364Y19713D01*
X8288Y20074D01*
X8221Y20436D01*
X8162Y20799D01*
X8113Y21164D01*
X8072Y21530D01*
X8041Y21897D01*
X8018Y22264D01*
X8005Y22632D01*
X8000Y23000D01*
D15*
X23000Y23000D03*
D10*
X8000Y377000D02*
X8005Y377368D01*
X8018Y377736D01*
X8041Y378103D01*
X8072Y378470D01*
X8113Y378836D01*
X8162Y379201D01*
X8221Y379564D01*
X8288Y379926D01*
X8364Y380287D01*
X8450Y380645D01*
X8543Y381001D01*
X8646Y381354D01*
X8757Y381705D01*
X8877Y382053D01*
X9005Y382398D01*
X9142Y382740D01*
X9287Y383079D01*
X9440Y383413D01*
X9602Y383744D01*
X9771Y384071D01*
X9949Y384393D01*
X10134Y384712D01*
X10327Y385025D01*
X10528Y385334D01*
X10736Y385637D01*
X10952Y385935D01*
X11175Y386228D01*
X11405Y386516D01*
X11642Y386798D01*
X11886Y387073D01*
X12136Y387343D01*
X12393Y387607D01*
X12657Y387864D01*
X12927Y388114D01*
X13202Y388358D01*
X13484Y388595D01*
X13772Y388825D01*
X14065Y389048D01*
X14363Y389264D01*
X14666Y389472D01*
X14975Y389673D01*
X15288Y389866D01*
X15607Y390051D01*
X15929Y390229D01*
X16256Y390398D01*
X16587Y390560D01*
X16921Y390713D01*
X17260Y390858D01*
X17602Y390995D01*
X17947Y391123D01*
X18295Y391243D01*
X18646Y391354D01*
X18999Y391457D01*
X19355Y391550D01*
X19713Y391636D01*
X20074Y391712D01*
X20436Y391779D01*
X20799Y391838D01*
X21164Y391887D01*
X21530Y391928D01*
X21897Y391959D01*
X22264Y391982D01*
X22632Y391995D01*
X23000Y392000D01*
X23368Y391995D01*
X23736Y391982D01*
X24103Y391959D01*
X24470Y391928D01*
X24836Y391887D01*
X25201Y391838D01*
X25564Y391779D01*
X25926Y391712D01*
X26287Y391636D01*
X26645Y391550D01*
X27001Y391457D01*
X27354Y391354D01*
X27705Y391243D01*
X28053Y391123D01*
X28398Y390995D01*
X28740Y390858D01*
X29079Y390713D01*
X29413Y390560D01*
X29744Y390398D01*
X30071Y390229D01*
X30393Y390051D01*
X30712Y389866D01*
X31025Y389673D01*
X31334Y389472D01*
X31637Y389264D01*
X31935Y389048D01*
X32228Y388825D01*
X32516Y388595D01*
X32798Y388358D01*
X33073Y388114D01*
X33343Y387864D01*
X33607Y387607D01*
X33864Y387343D01*
X34114Y387073D01*
X34358Y386798D01*
X34595Y386516D01*
X34825Y386228D01*
X35048Y385935D01*
X35264Y385637D01*
X35472Y385334D01*
X35673Y385025D01*
X35866Y384712D01*
X36051Y384393D01*
X36229Y384071D01*
X36398Y383744D01*
X36560Y383413D01*
X36713Y383079D01*
X36858Y382740D01*
X36995Y382398D01*
X37123Y382053D01*
X37243Y381705D01*
X37354Y381354D01*
X37457Y381001D01*
X37550Y380645D01*
X37636Y380287D01*
X37712Y379926D01*
X37779Y379564D01*
X37838Y379201D01*
X37887Y378836D01*
X37928Y378470D01*
X37959Y378103D01*
X37982Y377736D01*
X37995Y377368D01*
X38000Y377000D01*
X37995Y376632D01*
X37982Y376264D01*
X37959Y375897D01*
X37928Y375530D01*
X37887Y375164D01*
X37838Y374799D01*
X37779Y374436D01*
X37712Y374074D01*
X37636Y373713D01*
X37550Y373355D01*
X37457Y372999D01*
X37354Y372646D01*
X37243Y372295D01*
X37123Y371947D01*
X36995Y371602D01*
X36858Y371260D01*
X36713Y370921D01*
X36560Y370587D01*
X36398Y370256D01*
X36229Y369929D01*
X36051Y369607D01*
X35866Y369288D01*
X35673Y368975D01*
X35472Y368666D01*
X35264Y368363D01*
X35048Y368065D01*
X34825Y367772D01*
X34595Y367484D01*
X34358Y367202D01*
X34114Y366927D01*
X33864Y366657D01*
X33607Y366393D01*
X33343Y366136D01*
X33073Y365886D01*
X32798Y365642D01*
X32516Y365405D01*
X32228Y365175D01*
X31935Y364952D01*
X31637Y364736D01*
X31334Y364528D01*
X31025Y364327D01*
X30712Y364134D01*
X30393Y363949D01*
X30071Y363771D01*
X29744Y363602D01*
X29413Y363440D01*
X29079Y363287D01*
X28740Y363142D01*
X28398Y363005D01*
X28053Y362877D01*
X27705Y362757D01*
X27354Y362646D01*
X27001Y362543D01*
X26645Y362450D01*
X26287Y362364D01*
X25926Y362288D01*
X25564Y362221D01*
X25201Y362162D01*
X24836Y362113D01*
X24470Y362072D01*
X24103Y362041D01*
X23736Y362018D01*
X23368Y362005D01*
X23000Y362000D01*
X22632Y362005D01*
X22264Y362018D01*
X21897Y362041D01*
X21530Y362072D01*
X21164Y362113D01*
X20799Y362162D01*
X20436Y362221D01*
X20074Y362288D01*
X19713Y362364D01*
X19355Y362450D01*
X18999Y362543D01*
X18646Y362646D01*
X18295Y362757D01*
X17947Y362877D01*
X17602Y363005D01*
X17260Y363142D01*
X16921Y363287D01*
X16587Y363440D01*
X16256Y363602D01*
X15929Y363771D01*
X15607Y363949D01*
X15288Y364134D01*
X14975Y364327D01*
X14666Y364528D01*
X14363Y364736D01*
X14065Y364952D01*
X13772Y365175D01*
X13484Y365405D01*
X13202Y365642D01*
X12927Y365886D01*
X12657Y366136D01*
X12393Y366393D01*
X12136Y366657D01*
X11886Y366927D01*
X11642Y367202D01*
X11405Y367484D01*
X11175Y367772D01*
X10952Y368065D01*
X10736Y368363D01*
X10528Y368666D01*
X10327Y368975D01*
X10134Y369288D01*
X9949Y369607D01*
X9771Y369929D01*
X9602Y370256D01*
X9440Y370587D01*
X9287Y370921D01*
X9142Y371260D01*
X9005Y371602D01*
X8877Y371947D01*
X8757Y372295D01*
X8646Y372646D01*
X8543Y372999D01*
X8450Y373355D01*
X8364Y373713D01*
X8288Y374074D01*
X8221Y374436D01*
X8162Y374799D01*
X8113Y375164D01*
X8072Y375530D01*
X8041Y375897D01*
X8018Y376264D01*
X8005Y376632D01*
X8000Y377000D01*
D15*
X23000Y377000D03*
D10*
X362000Y23000D02*
X362005Y23368D01*
X362018Y23736D01*
X362041Y24103D01*
X362072Y24470D01*
X362113Y24836D01*
X362162Y25201D01*
X362221Y25564D01*
X362288Y25926D01*
X362364Y26287D01*
X362450Y26645D01*
X362543Y27001D01*
X362646Y27354D01*
X362757Y27705D01*
X362877Y28053D01*
X363005Y28398D01*
X363142Y28740D01*
X363287Y29079D01*
X363440Y29413D01*
X363602Y29744D01*
X363771Y30071D01*
X363949Y30393D01*
X364134Y30712D01*
X364327Y31025D01*
X364528Y31334D01*
X364736Y31637D01*
X364952Y31935D01*
X365175Y32228D01*
X365405Y32516D01*
X365642Y32798D01*
X365886Y33073D01*
X366136Y33343D01*
X366393Y33607D01*
X366657Y33864D01*
X366927Y34114D01*
X367202Y34358D01*
X367484Y34595D01*
X367772Y34825D01*
X368065Y35048D01*
X368363Y35264D01*
X368666Y35472D01*
X368975Y35673D01*
X369288Y35866D01*
X369607Y36051D01*
X369929Y36229D01*
X370256Y36398D01*
X370587Y36560D01*
X370921Y36713D01*
X371260Y36858D01*
X371602Y36995D01*
X371947Y37123D01*
X372295Y37243D01*
X372646Y37354D01*
X372999Y37457D01*
X373355Y37550D01*
X373713Y37636D01*
X374074Y37712D01*
X374436Y37779D01*
X374799Y37838D01*
X375164Y37887D01*
X375530Y37928D01*
X375897Y37959D01*
X376264Y37982D01*
X376632Y37995D01*
X377000Y38000D01*
X377368Y37995D01*
X377736Y37982D01*
X378103Y37959D01*
X378470Y37928D01*
X378836Y37887D01*
X379201Y37838D01*
X379564Y37779D01*
X379926Y37712D01*
X380287Y37636D01*
X380645Y37550D01*
X381001Y37457D01*
X381354Y37354D01*
X381705Y37243D01*
X382053Y37123D01*
X382398Y36995D01*
X382740Y36858D01*
X383079Y36713D01*
X383413Y36560D01*
X383744Y36398D01*
X384071Y36229D01*
X384393Y36051D01*
X384712Y35866D01*
X385025Y35673D01*
X385334Y35472D01*
X385637Y35264D01*
X385935Y35048D01*
X386228Y34825D01*
X386516Y34595D01*
X386798Y34358D01*
X387073Y34114D01*
X387343Y33864D01*
X387607Y33607D01*
X387864Y33343D01*
X388114Y33073D01*
X388358Y32798D01*
X388595Y32516D01*
X388825Y32228D01*
X389048Y31935D01*
X389264Y31637D01*
X389472Y31334D01*
X389673Y31025D01*
X389866Y30712D01*
X390051Y30393D01*
X390229Y30071D01*
X390398Y29744D01*
X390560Y29413D01*
X390713Y29079D01*
X390858Y28740D01*
X390995Y28398D01*
X391123Y28053D01*
X391243Y27705D01*
X391354Y27354D01*
X391457Y27001D01*
X391550Y26645D01*
X391636Y26287D01*
X391712Y25926D01*
X391779Y25564D01*
X391838Y25201D01*
X391887Y24836D01*
X391928Y24470D01*
X391959Y24103D01*
X391982Y23736D01*
X391995Y23368D01*
X392000Y23000D01*
X391995Y22632D01*
X391982Y22264D01*
X391959Y21897D01*
X391928Y21530D01*
X391887Y21164D01*
X391838Y20799D01*
X391779Y20436D01*
X391712Y20074D01*
X391636Y19713D01*
X391550Y19355D01*
X391457Y18999D01*
X391354Y18646D01*
X391243Y18295D01*
X391123Y17947D01*
X390995Y17602D01*
X390858Y17260D01*
X390713Y16921D01*
X390560Y16587D01*
X390398Y16256D01*
X390229Y15929D01*
X390051Y15607D01*
X389866Y15288D01*
X389673Y14975D01*
X389472Y14666D01*
X389264Y14363D01*
X389048Y14065D01*
X388825Y13772D01*
X388595Y13484D01*
X388358Y13202D01*
X388114Y12927D01*
X387864Y12657D01*
X387607Y12393D01*
X387343Y12136D01*
X387073Y11886D01*
X386798Y11642D01*
X386516Y11405D01*
X386228Y11175D01*
X385935Y10952D01*
X385637Y10736D01*
X385334Y10528D01*
X385025Y10327D01*
X384712Y10134D01*
X384393Y9949D01*
X384071Y9771D01*
X383744Y9602D01*
X383413Y9440D01*
X383079Y9287D01*
X382740Y9142D01*
X382398Y9005D01*
X382053Y8877D01*
X381705Y8757D01*
X381354Y8646D01*
X381001Y8543D01*
X380645Y8450D01*
X380287Y8364D01*
X379926Y8288D01*
X379564Y8221D01*
X379201Y8162D01*
X378836Y8113D01*
X378470Y8072D01*
X378103Y8041D01*
X377736Y8018D01*
X377368Y8005D01*
X377000Y8000D01*
X376632Y8005D01*
X376264Y8018D01*
X375897Y8041D01*
X375530Y8072D01*
X375164Y8113D01*
X374799Y8162D01*
X374436Y8221D01*
X374074Y8288D01*
X373713Y8364D01*
X373355Y8450D01*
X372999Y8543D01*
X372646Y8646D01*
X372295Y8757D01*
X371947Y8877D01*
X371602Y9005D01*
X371260Y9142D01*
X370921Y9287D01*
X370587Y9440D01*
X370256Y9602D01*
X369929Y9771D01*
X369607Y9949D01*
X369288Y10134D01*
X368975Y10327D01*
X368666Y10528D01*
X368363Y10736D01*
X368065Y10952D01*
X367772Y11175D01*
X367484Y11405D01*
X367202Y11642D01*
X366927Y11886D01*
X366657Y12136D01*
X366393Y12393D01*
X366136Y12657D01*
X365886Y12927D01*
X365642Y13202D01*
X365405Y13484D01*
X365175Y13772D01*
X364952Y14065D01*
X364736Y14363D01*
X364528Y14666D01*
X364327Y14975D01*
X364134Y15288D01*
X363949Y15607D01*
X363771Y15929D01*
X363602Y16256D01*
X363440Y16587D01*
X363287Y16921D01*
X363142Y17260D01*
X363005Y17602D01*
X362877Y17947D01*
X362757Y18295D01*
X362646Y18646D01*
X362543Y18999D01*
X362450Y19355D01*
X362364Y19713D01*
X362288Y20074D01*
X362221Y20436D01*
X362162Y20799D01*
X362113Y21164D01*
X362072Y21530D01*
X362041Y21897D01*
X362018Y22264D01*
X362005Y22632D01*
X362000Y23000D01*
D15*
X377000Y23000D03*
D10*
X362000Y377000D02*
X362005Y377368D01*
X362018Y377736D01*
X362041Y378103D01*
X362072Y378470D01*
X362113Y378836D01*
X362162Y379201D01*
X362221Y379564D01*
X362288Y379926D01*
X362364Y380287D01*
X362450Y380645D01*
X362543Y381001D01*
X362646Y381354D01*
X362757Y381705D01*
X362877Y382053D01*
X363005Y382398D01*
X363142Y382740D01*
X363287Y383079D01*
X363440Y383413D01*
X363602Y383744D01*
X363771Y384071D01*
X363949Y384393D01*
X364134Y384712D01*
X364327Y385025D01*
X364528Y385334D01*
X364736Y385637D01*
X364952Y385935D01*
X365175Y386228D01*
X365405Y386516D01*
X365642Y386798D01*
X365886Y387073D01*
X366136Y387343D01*
X366393Y387607D01*
X366657Y387864D01*
X366927Y388114D01*
X367202Y388358D01*
X367484Y388595D01*
X367772Y388825D01*
X368065Y389048D01*
X368363Y389264D01*
X368666Y389472D01*
X368975Y389673D01*
X369288Y389866D01*
X369607Y390051D01*
X369929Y390229D01*
X370256Y390398D01*
X370587Y390560D01*
X370921Y390713D01*
X371260Y390858D01*
X371602Y390995D01*
X371947Y391123D01*
X372295Y391243D01*
X372646Y391354D01*
X372999Y391457D01*
X373355Y391550D01*
X373713Y391636D01*
X374074Y391712D01*
X374436Y391779D01*
X374799Y391838D01*
X375164Y391887D01*
X375530Y391928D01*
X375897Y391959D01*
X376264Y391982D01*
X376632Y391995D01*
X377000Y392000D01*
X377368Y391995D01*
X377736Y391982D01*
X378103Y391959D01*
X378470Y391928D01*
X378836Y391887D01*
X379201Y391838D01*
X379564Y391779D01*
X379926Y391712D01*
X380287Y391636D01*
X380645Y391550D01*
X381001Y391457D01*
X381354Y391354D01*
X381705Y391243D01*
X382053Y391123D01*
X382398Y390995D01*
X382740Y390858D01*
X383079Y390713D01*
X383413Y390560D01*
X383744Y390398D01*
X384071Y390229D01*
X384393Y390051D01*
X384712Y389866D01*
X385025Y389673D01*
X385334Y389472D01*
X385637Y389264D01*
X385935Y389048D01*
X386228Y388825D01*
X386516Y388595D01*
X386798Y388358D01*
X387073Y388114D01*
X387343Y387864D01*
X387607Y387607D01*
X387864Y387343D01*
X388114Y387073D01*
X388358Y386798D01*
X388595Y386516D01*
X388825Y386228D01*
X389048Y385935D01*
X389264Y385637D01*
X389472Y385334D01*
X389673Y385025D01*
X389866Y384712D01*
X390051Y384393D01*
X390229Y384071D01*
X390398Y383744D01*
X390560Y383413D01*
X390713Y383079D01*
X390858Y382740D01*
X390995Y382398D01*
X391123Y382053D01*
X391243Y381705D01*
X391354Y381354D01*
X391457Y381001D01*
X391550Y380645D01*
X391636Y380287D01*
X391712Y379926D01*
X391779Y379564D01*
X391838Y379201D01*
X391887Y378836D01*
X391928Y378470D01*
X391959Y378103D01*
X391982Y377736D01*
X391995Y377368D01*
X392000Y377000D01*
X391995Y376632D01*
X391982Y376264D01*
X391959Y375897D01*
X391928Y375530D01*
X391887Y375164D01*
X391838Y374799D01*
X391779Y374436D01*
X391712Y374074D01*
X391636Y373713D01*
X391550Y373355D01*
X391457Y372999D01*
X391354Y372646D01*
X391243Y372295D01*
X391123Y371947D01*
X390995Y371602D01*
X390858Y371260D01*
X390713Y370921D01*
X390560Y370587D01*
X390398Y370256D01*
X390229Y369929D01*
X390051Y369607D01*
X389866Y369288D01*
X389673Y368975D01*
X389472Y368666D01*
X389264Y368363D01*
X389048Y368065D01*
X388825Y367772D01*
X388595Y367484D01*
X388358Y367202D01*
X388114Y366927D01*
X387864Y366657D01*
X387607Y366393D01*
X387343Y366136D01*
X387073Y365886D01*
X386798Y365642D01*
X386516Y365405D01*
X386228Y365175D01*
X385935Y364952D01*
X385637Y364736D01*
X385334Y364528D01*
X385025Y364327D01*
X384712Y364134D01*
X384393Y363949D01*
X384071Y363771D01*
X383744Y363602D01*
X383413Y363440D01*
X383079Y363287D01*
X382740Y363142D01*
X382398Y363005D01*
X382053Y362877D01*
X381705Y362757D01*
X381354Y362646D01*
X381001Y362543D01*
X380645Y362450D01*
X380287Y362364D01*
X379926Y362288D01*
X379564Y362221D01*
X379201Y362162D01*
X378836Y362113D01*
X378470Y362072D01*
X378103Y362041D01*
X377736Y362018D01*
X377368Y362005D01*
X377000Y362000D01*
X376632Y362005D01*
X376264Y362018D01*
X375897Y362041D01*
X375530Y362072D01*
X375164Y362113D01*
X374799Y362162D01*
X374436Y362221D01*
X374074Y362288D01*
X373713Y362364D01*
X373355Y362450D01*
X372999Y362543D01*
X372646Y362646D01*
X372295Y362757D01*
X371947Y362877D01*
X371602Y363005D01*
X371260Y363142D01*
X370921Y363287D01*
X370587Y363440D01*
X370256Y363602D01*
X369929Y363771D01*
X369607Y363949D01*
X369288Y364134D01*
X368975Y364327D01*
X368666Y364528D01*
X368363Y364736D01*
X368065Y364952D01*
X367772Y365175D01*
X367484Y365405D01*
X367202Y365642D01*
X366927Y365886D01*
X366657Y366136D01*
X366393Y366393D01*
X366136Y366657D01*
X365886Y366927D01*
X365642Y367202D01*
X365405Y367484D01*
X365175Y367772D01*
X364952Y368065D01*
X364736Y368363D01*
X364528Y368666D01*
X364327Y368975D01*
X364134Y369288D01*
X363949Y369607D01*
X363771Y369929D01*
X363602Y370256D01*
X363440Y370587D01*
X363287Y370921D01*
X363142Y371260D01*
X363005Y371602D01*
X362877Y371947D01*
X362757Y372295D01*
X362646Y372646D01*
X362543Y372999D01*
X362450Y373355D01*
X362364Y373713D01*
X362288Y374074D01*
X362221Y374436D01*
X362162Y374799D01*
X362113Y375164D01*
X362072Y375530D01*
X362041Y375897D01*
X362018Y376264D01*
X362005Y376632D01*
X362000Y377000D01*
D15*
X377000Y377000D03*
D14*
X362300Y263500D03*
X50800Y300355D03*
X76200Y300355D03*
X101600Y300355D03*
X127000Y300355D03*
X152400Y300355D03*
X177800Y300355D03*
X203200Y300355D03*
X228600Y300355D03*
D16*
X307995Y384870D03*
X221595Y384870D03*
X307995Y346870D03*
X221595Y346870D03*
D17*
X66811Y185420D03*
X84319Y185420D03*
X66811Y162560D03*
X84319Y162560D03*
X257311Y185420D03*
X274819Y185420D03*
X257311Y162560D03*
X274819Y162560D03*
D18*
X37465Y321446D03*
X37465Y338954D03*
X59690Y321446D03*
X59690Y338954D03*
D17*
X202701Y185420D03*
X220209Y185420D03*
D18*
X66675Y241164D03*
X66675Y223656D03*
M02*
