G04 EAGLE Gerber RS-274X export*
G75*
%MOMM*%
%FSLAX34Y34*%
%LPD*%
%INBottom layer*%
%IPPOS*%
%AMOC8*
5,1,8,0,0,1.08239X$1,22.5*%
G01*
G04 Define Apertures*
%ADD10C,0.000000*%
%ADD11R,1.380000X1.380000*%
%ADD12C,1.380000*%
%ADD13C,3.316000*%
%ADD14C,1.500000*%
%ADD15C,2.010000*%
%ADD16R,1.164600X1.465300*%
%ADD17R,1.465300X1.164600*%
%ADD18C,0.704800*%
%ADD19C,0.406400*%
%ADD20C,0.508000*%
%ADD21C,0.812800*%
G36*
X362409Y5241D02*
X361617Y5080D01*
X38383Y5080D01*
X37681Y5205D01*
X36993Y5630D01*
X36525Y6290D01*
X36351Y7080D01*
X36500Y7875D01*
X36946Y8549D01*
X40023Y11626D01*
X43080Y19006D01*
X43080Y26994D01*
X40023Y34374D01*
X34374Y40023D01*
X26994Y43080D01*
X19006Y43080D01*
X11626Y40023D01*
X8549Y36946D01*
X7964Y36538D01*
X7177Y36352D01*
X6380Y36488D01*
X5698Y36924D01*
X5241Y37591D01*
X5080Y38383D01*
X5080Y49258D01*
X5211Y49975D01*
X5641Y50660D01*
X6305Y51123D01*
X7096Y51290D01*
X7890Y51135D01*
X9968Y50274D01*
X9968Y70326D01*
X7890Y69465D01*
X7177Y69311D01*
X6380Y69447D01*
X5698Y69882D01*
X5241Y70549D01*
X5080Y71342D01*
X5080Y226508D01*
X5211Y227226D01*
X5641Y227910D01*
X6305Y228373D01*
X7096Y228540D01*
X7890Y228386D01*
X9902Y227552D01*
X14098Y227552D01*
X17975Y229158D01*
X20942Y232125D01*
X22548Y236002D01*
X22548Y240198D01*
X20942Y244075D01*
X17975Y247042D01*
X14098Y248648D01*
X9902Y248648D01*
X7890Y247815D01*
X7177Y247661D01*
X6380Y247796D01*
X5698Y248232D01*
X5241Y248899D01*
X5080Y249692D01*
X5080Y251908D01*
X5211Y252626D01*
X5641Y253310D01*
X6305Y253773D01*
X7096Y253940D01*
X7890Y253786D01*
X9902Y252952D01*
X14098Y252952D01*
X17975Y254558D01*
X20942Y257525D01*
X22548Y261402D01*
X22548Y265598D01*
X20942Y269475D01*
X17975Y272442D01*
X14098Y274048D01*
X9902Y274048D01*
X7890Y273215D01*
X7177Y273061D01*
X6380Y273196D01*
X5698Y273632D01*
X5241Y274299D01*
X5080Y275092D01*
X5080Y277308D01*
X5211Y278026D01*
X5641Y278710D01*
X6305Y279173D01*
X7096Y279340D01*
X7890Y279186D01*
X9902Y278352D01*
X14098Y278352D01*
X17975Y279958D01*
X19130Y281113D01*
X19715Y281521D01*
X20502Y281707D01*
X21300Y281572D01*
X21981Y281136D01*
X22438Y280469D01*
X22599Y279676D01*
X22599Y276715D01*
X23682Y274101D01*
X25682Y272101D01*
X25770Y272065D01*
X26429Y271624D01*
X55705Y242348D01*
X56140Y241704D01*
X56301Y240911D01*
X56301Y234078D01*
X56532Y233847D01*
X56953Y233232D01*
X57127Y232442D01*
X56979Y231647D01*
X56532Y230973D01*
X56301Y230742D01*
X56301Y216570D01*
X58213Y214658D01*
X58264Y214648D01*
X58945Y214213D01*
X59402Y213546D01*
X59563Y212753D01*
X59563Y196474D01*
X59414Y195711D01*
X58968Y195037D01*
X57940Y194009D01*
X57940Y176831D01*
X59104Y175667D01*
X59538Y175023D01*
X59699Y174230D01*
X59699Y173750D01*
X59550Y172987D01*
X59104Y172313D01*
X57940Y171149D01*
X57940Y153971D01*
X59104Y152807D01*
X59538Y152163D01*
X59699Y151370D01*
X59699Y140680D01*
X59562Y139948D01*
X59127Y139266D01*
X58901Y139112D01*
X56652Y136863D01*
X56652Y120537D01*
X58437Y118752D01*
X74763Y118752D01*
X76548Y120537D01*
X76548Y136863D01*
X74518Y138892D01*
X74084Y139537D01*
X73923Y140329D01*
X73923Y151309D01*
X74048Y152011D01*
X74473Y152699D01*
X75133Y153167D01*
X75923Y153340D01*
X76718Y153192D01*
X77392Y152746D01*
X77444Y152694D01*
X82287Y152694D01*
X82287Y164592D01*
X92682Y164592D01*
X92682Y170939D01*
X91067Y172553D01*
X90646Y173168D01*
X90473Y173958D01*
X90621Y174753D01*
X91067Y175427D01*
X92682Y177041D01*
X92682Y183388D01*
X82287Y183388D01*
X82287Y195287D01*
X77444Y195287D01*
X77361Y195204D01*
X76747Y194782D01*
X75957Y194609D01*
X75162Y194757D01*
X74487Y195204D01*
X74382Y195309D01*
X73948Y195953D01*
X73787Y196746D01*
X73787Y212753D01*
X73924Y213486D01*
X74359Y214167D01*
X75026Y214624D01*
X75123Y214644D01*
X77050Y216570D01*
X77050Y230742D01*
X76818Y230973D01*
X76397Y231588D01*
X76223Y232378D01*
X76371Y233173D01*
X76818Y233847D01*
X77050Y234078D01*
X77050Y248250D01*
X75264Y250035D01*
X68976Y250035D01*
X68213Y250184D01*
X67539Y250630D01*
X53160Y265009D01*
X52752Y265594D01*
X52566Y266381D01*
X52701Y267179D01*
X53137Y267860D01*
X53804Y268317D01*
X54597Y268478D01*
X90827Y268478D01*
X91590Y268329D01*
X92264Y267883D01*
X180756Y179391D01*
X183370Y178308D01*
X191798Y178308D01*
X192531Y178171D01*
X193212Y177736D01*
X193669Y177069D01*
X193689Y176972D01*
X195615Y175046D01*
X209787Y175046D01*
X210018Y175277D01*
X210633Y175698D01*
X211423Y175872D01*
X212218Y175724D01*
X212892Y175277D01*
X213123Y175046D01*
X227295Y175046D01*
X229207Y176958D01*
X229217Y177009D01*
X229652Y177690D01*
X230319Y178147D01*
X231112Y178308D01*
X246408Y178308D01*
X247141Y178171D01*
X247822Y177736D01*
X248279Y177069D01*
X248299Y176972D01*
X249604Y175667D01*
X250038Y175023D01*
X250199Y174230D01*
X250199Y173750D01*
X250050Y172987D01*
X249604Y172313D01*
X248440Y171149D01*
X248440Y153971D01*
X249604Y152807D01*
X250038Y152163D01*
X250199Y151370D01*
X250199Y140680D01*
X250062Y139948D01*
X249627Y139266D01*
X249401Y139112D01*
X247152Y136863D01*
X247152Y120537D01*
X248937Y118752D01*
X265263Y118752D01*
X267048Y120537D01*
X267048Y136863D01*
X265018Y138892D01*
X264584Y139537D01*
X264423Y140329D01*
X264423Y151309D01*
X264548Y152011D01*
X264973Y152699D01*
X265633Y153167D01*
X266423Y153340D01*
X267218Y153192D01*
X267892Y152746D01*
X267944Y152694D01*
X272787Y152694D01*
X272787Y164592D01*
X283182Y164592D01*
X283182Y170939D01*
X281567Y172553D01*
X281146Y173168D01*
X280973Y173958D01*
X281121Y174753D01*
X281567Y175427D01*
X283182Y177041D01*
X283182Y183388D01*
X272787Y183388D01*
X272787Y195287D01*
X267944Y195287D01*
X267861Y195204D01*
X267247Y194782D01*
X266457Y194609D01*
X265662Y194757D01*
X264987Y195204D01*
X264397Y195795D01*
X250225Y195795D01*
X248313Y193882D01*
X248303Y193832D01*
X247868Y193150D01*
X247201Y192693D01*
X246408Y192532D01*
X231112Y192532D01*
X230380Y192669D01*
X229698Y193104D01*
X229241Y193771D01*
X229221Y193868D01*
X227295Y195795D01*
X213123Y195795D01*
X212892Y195563D01*
X212277Y195142D01*
X211487Y194968D01*
X210692Y195116D01*
X210018Y195563D01*
X209787Y195795D01*
X195615Y195795D01*
X193703Y193882D01*
X193693Y193832D01*
X193258Y193150D01*
X192591Y192693D01*
X191798Y192532D01*
X188573Y192532D01*
X187810Y192681D01*
X187136Y193127D01*
X98644Y281619D01*
X96030Y282702D01*
X38855Y282702D01*
X38123Y282839D01*
X37441Y283274D01*
X36984Y283941D01*
X36823Y284734D01*
X36823Y296320D01*
X36943Y297007D01*
X37362Y297698D01*
X38018Y298171D01*
X38806Y298351D01*
X39603Y298209D01*
X40280Y297768D01*
X40732Y297097D01*
X41858Y294380D01*
X44825Y291413D01*
X48702Y289807D01*
X52898Y289807D01*
X56775Y291413D01*
X59742Y294380D01*
X61348Y298257D01*
X61348Y302453D01*
X59742Y306330D01*
X56966Y309106D01*
X56558Y309691D01*
X56372Y310478D01*
X56507Y311276D01*
X56943Y311957D01*
X57610Y312414D01*
X58403Y312575D01*
X68364Y312575D01*
X68531Y312827D01*
X70065Y314360D01*
X70065Y328532D01*
X69474Y329122D01*
X69052Y329737D01*
X68879Y330527D01*
X69027Y331322D01*
X69474Y331996D01*
X69557Y332079D01*
X69557Y336922D01*
X57658Y336922D01*
X57658Y347317D01*
X51311Y347317D01*
X50014Y346020D01*
X49400Y345599D01*
X48610Y345425D01*
X47815Y345573D01*
X47141Y346020D01*
X45844Y347317D01*
X39497Y347317D01*
X39497Y336922D01*
X26583Y336922D01*
X26583Y337344D01*
X26389Y337207D01*
X25599Y337033D01*
X24804Y337182D01*
X24130Y337628D01*
X23143Y338615D01*
X22709Y339259D01*
X22548Y340052D01*
X22548Y341798D01*
X20942Y345675D01*
X17975Y348642D01*
X14098Y350248D01*
X9902Y350248D01*
X7890Y349415D01*
X7177Y349261D01*
X6380Y349396D01*
X5698Y349832D01*
X5241Y350499D01*
X5080Y351292D01*
X5080Y361617D01*
X5205Y362319D01*
X5630Y363007D01*
X6290Y363475D01*
X7080Y363649D01*
X7875Y363500D01*
X8549Y363054D01*
X11626Y359977D01*
X19006Y356920D01*
X26994Y356920D01*
X34374Y359977D01*
X40023Y365626D01*
X43080Y373006D01*
X43080Y380994D01*
X40023Y388374D01*
X36946Y391451D01*
X36538Y392036D01*
X36352Y392823D01*
X36488Y393621D01*
X36924Y394302D01*
X37591Y394759D01*
X38383Y394920D01*
X209089Y394920D01*
X209807Y394789D01*
X210492Y394359D01*
X210954Y393695D01*
X211121Y392904D01*
X210967Y392110D01*
X209005Y387374D01*
X209005Y386902D01*
X234185Y386902D01*
X234185Y387374D01*
X232223Y392110D01*
X232070Y392823D01*
X232205Y393621D01*
X232641Y394302D01*
X233308Y394759D01*
X234101Y394920D01*
X295489Y394920D01*
X296207Y394789D01*
X296892Y394359D01*
X297354Y393695D01*
X297521Y392904D01*
X297367Y392110D01*
X295405Y387374D01*
X295405Y386902D01*
X320585Y386902D01*
X320585Y387374D01*
X318623Y392110D01*
X318470Y392823D01*
X318605Y393621D01*
X319041Y394302D01*
X319708Y394759D01*
X320501Y394920D01*
X361617Y394920D01*
X362319Y394795D01*
X363007Y394370D01*
X363475Y393710D01*
X363649Y392920D01*
X363500Y392125D01*
X363054Y391451D01*
X359977Y388374D01*
X356920Y380994D01*
X356920Y373006D01*
X359977Y365626D01*
X365626Y359977D01*
X373006Y356920D01*
X380994Y356920D01*
X388374Y359977D01*
X391451Y363054D01*
X392036Y363462D01*
X392823Y363648D01*
X393621Y363512D01*
X394302Y363076D01*
X394759Y362409D01*
X394920Y361617D01*
X394920Y351168D01*
X394789Y350450D01*
X394359Y349766D01*
X393695Y349303D01*
X392904Y349136D01*
X392110Y349290D01*
X389798Y350248D01*
X385602Y350248D01*
X381725Y348642D01*
X378758Y345675D01*
X377152Y341798D01*
X377152Y337602D01*
X378758Y333725D01*
X381725Y330758D01*
X385602Y329152D01*
X389798Y329152D01*
X392110Y330110D01*
X392823Y330263D01*
X393621Y330128D01*
X394302Y329692D01*
X394759Y329025D01*
X394920Y328232D01*
X394920Y325768D01*
X394789Y325050D01*
X394359Y324366D01*
X393695Y323903D01*
X392904Y323736D01*
X392110Y323890D01*
X389798Y324848D01*
X385602Y324848D01*
X381725Y323242D01*
X378758Y320275D01*
X377152Y316398D01*
X377152Y312202D01*
X378758Y308325D01*
X381725Y305358D01*
X385602Y303752D01*
X389798Y303752D01*
X392110Y304710D01*
X392823Y304863D01*
X393621Y304728D01*
X394302Y304292D01*
X394759Y303625D01*
X394920Y302832D01*
X394920Y299818D01*
X394789Y299100D01*
X394359Y298416D01*
X393695Y297953D01*
X392904Y297786D01*
X392110Y297940D01*
X389732Y298926D01*
X389732Y278874D01*
X392110Y279860D01*
X392823Y280013D01*
X393621Y279878D01*
X394302Y279442D01*
X394759Y278775D01*
X394920Y277982D01*
X394920Y274968D01*
X394789Y274250D01*
X394359Y273566D01*
X393695Y273103D01*
X392904Y272936D01*
X392110Y273090D01*
X389798Y274048D01*
X385602Y274048D01*
X381725Y272442D01*
X378758Y269475D01*
X377152Y265598D01*
X377152Y261402D01*
X378758Y257525D01*
X381725Y254558D01*
X385602Y252952D01*
X389798Y252952D01*
X392110Y253910D01*
X392823Y254063D01*
X393621Y253928D01*
X394302Y253492D01*
X394759Y252825D01*
X394920Y252032D01*
X394920Y249568D01*
X394789Y248850D01*
X394359Y248166D01*
X393695Y247703D01*
X392904Y247536D01*
X392110Y247690D01*
X389798Y248648D01*
X385602Y248648D01*
X381725Y247042D01*
X378758Y244075D01*
X377152Y240198D01*
X377152Y236002D01*
X378758Y232125D01*
X381725Y229158D01*
X385602Y227552D01*
X389798Y227552D01*
X392110Y228510D01*
X392823Y228663D01*
X393621Y228528D01*
X394302Y228092D01*
X394759Y227425D01*
X394920Y226632D01*
X394920Y38383D01*
X394795Y37681D01*
X394370Y36993D01*
X393710Y36525D01*
X392920Y36351D01*
X392125Y36500D01*
X391451Y36946D01*
X388374Y40023D01*
X380994Y43080D01*
X373006Y43080D01*
X365626Y40023D01*
X359977Y34374D01*
X356920Y26994D01*
X356920Y19006D01*
X359977Y11626D01*
X363054Y8549D01*
X363462Y7964D01*
X363648Y7177D01*
X363512Y6380D01*
X363076Y5698D01*
X362409Y5241D01*
G37*
%LPC*%
G36*
X223627Y372280D02*
X224099Y372280D01*
X228727Y374197D01*
X232268Y377738D01*
X234185Y382366D01*
X234185Y382838D01*
X223627Y382838D01*
X223627Y372280D01*
G37*
G36*
X219091Y372280D02*
X219563Y372280D01*
X219563Y382838D01*
X209005Y382838D01*
X209005Y382366D01*
X210922Y377738D01*
X214463Y374197D01*
X219091Y372280D01*
G37*
G36*
X305491Y372280D02*
X305963Y372280D01*
X305963Y382838D01*
X295405Y382838D01*
X295405Y382366D01*
X297322Y377738D01*
X300863Y374197D01*
X305491Y372280D01*
G37*
G36*
X310027Y372280D02*
X310499Y372280D01*
X315127Y374197D01*
X318668Y377738D01*
X320585Y382366D01*
X320585Y382838D01*
X310027Y382838D01*
X310027Y372280D01*
G37*
G36*
X310027Y348902D02*
X320585Y348902D01*
X320585Y349374D01*
X318668Y354002D01*
X315127Y357543D01*
X310499Y359460D01*
X310027Y359460D01*
X310027Y348902D01*
G37*
G36*
X223627Y348902D02*
X234185Y348902D01*
X234185Y349374D01*
X232268Y354002D01*
X228727Y357543D01*
X224099Y359460D01*
X223627Y359460D01*
X223627Y348902D01*
G37*
G36*
X209005Y348902D02*
X219563Y348902D01*
X219563Y359460D01*
X219091Y359460D01*
X214463Y357543D01*
X210922Y354002D01*
X209005Y349374D01*
X209005Y348902D01*
G37*
G36*
X295405Y348902D02*
X305963Y348902D01*
X305963Y359460D01*
X305491Y359460D01*
X300863Y357543D01*
X297322Y354002D01*
X295405Y349374D01*
X295405Y348902D01*
G37*
G36*
X164725Y270510D02*
X239770Y270510D01*
X241638Y271283D01*
X253579Y283225D01*
X254223Y283659D01*
X255016Y283820D01*
X351629Y283820D01*
X352375Y283678D01*
X353054Y283237D01*
X353072Y283211D01*
X353072Y283211D01*
X356325Y279958D01*
X360202Y278352D01*
X364398Y278352D01*
X368275Y279958D01*
X371242Y282925D01*
X372848Y286802D01*
X372848Y290998D01*
X371242Y294875D01*
X368275Y297842D01*
X364398Y299448D01*
X360202Y299448D01*
X356325Y297842D01*
X353104Y294621D01*
X353089Y294598D01*
X352422Y294141D01*
X351629Y293980D01*
X255270Y293980D01*
X254568Y294105D01*
X253880Y294530D01*
X253412Y295190D01*
X253238Y295980D01*
X253386Y296775D01*
X253833Y297449D01*
X265009Y308625D01*
X265653Y309059D01*
X266446Y309220D01*
X351629Y309220D01*
X352375Y309078D01*
X353054Y308637D01*
X353072Y308611D01*
X353072Y308611D01*
X356325Y305358D01*
X360202Y303752D01*
X364398Y303752D01*
X368275Y305358D01*
X371242Y308325D01*
X372848Y312202D01*
X372848Y316398D01*
X371242Y320275D01*
X368275Y323242D01*
X364398Y324848D01*
X360202Y324848D01*
X356325Y323242D01*
X353104Y320021D01*
X353089Y319998D01*
X352422Y319541D01*
X351629Y319380D01*
X344244Y319380D01*
X343541Y319505D01*
X342853Y319930D01*
X342385Y320590D01*
X342212Y321380D01*
X342360Y322175D01*
X342807Y322849D01*
X351951Y331993D01*
X352595Y332427D01*
X353388Y332588D01*
X353653Y332588D01*
X354416Y332439D01*
X355090Y331993D01*
X356325Y330758D01*
X360202Y329152D01*
X364398Y329152D01*
X368275Y330758D01*
X371242Y333725D01*
X372848Y337602D01*
X372848Y341798D01*
X371242Y345675D01*
X368275Y348642D01*
X364398Y350248D01*
X360202Y350248D01*
X356325Y348642D01*
X355090Y347407D01*
X354446Y346973D01*
X353653Y346812D01*
X348185Y346812D01*
X345571Y345729D01*
X333692Y333850D01*
X333048Y333416D01*
X332255Y333255D01*
X317091Y333255D01*
X316388Y333380D01*
X315700Y333805D01*
X315232Y334465D01*
X315059Y335255D01*
X315207Y336050D01*
X315654Y336724D01*
X318668Y339738D01*
X320585Y344366D01*
X320585Y344838D01*
X295405Y344838D01*
X295405Y344366D01*
X297322Y339738D01*
X300336Y336724D01*
X300744Y336139D01*
X300930Y335352D01*
X300795Y334555D01*
X300359Y333873D01*
X299692Y333416D01*
X298899Y333255D01*
X230691Y333255D01*
X229988Y333380D01*
X229300Y333805D01*
X228832Y334465D01*
X228659Y335255D01*
X228807Y336050D01*
X229254Y336724D01*
X232268Y339738D01*
X234185Y344366D01*
X234185Y344838D01*
X223627Y344838D01*
X223627Y333264D01*
X223153Y333264D01*
X223290Y333070D01*
X223464Y332280D01*
X223316Y331485D01*
X222869Y330811D01*
X203556Y311498D01*
X202912Y311064D01*
X202119Y310903D01*
X201102Y310903D01*
X197225Y309297D01*
X194258Y306330D01*
X192652Y302453D01*
X192652Y298257D01*
X194258Y294380D01*
X194339Y294299D01*
X194747Y293714D01*
X194933Y292927D01*
X194798Y292130D01*
X194362Y291448D01*
X193695Y290991D01*
X192902Y290830D01*
X187379Y290830D01*
X186677Y290955D01*
X185989Y291380D01*
X185521Y292040D01*
X185348Y292830D01*
X185496Y293625D01*
X185943Y294299D01*
X186312Y294668D01*
X187826Y298323D01*
X175768Y298323D01*
X175768Y310381D01*
X171960Y308803D01*
X171215Y308649D01*
X170420Y308797D01*
X169746Y309244D01*
X161628Y317362D01*
X159760Y318135D01*
X138690Y318135D01*
X136822Y317362D01*
X130953Y311492D01*
X130322Y311064D01*
X129531Y310897D01*
X129501Y310903D01*
X124902Y310903D01*
X121025Y309297D01*
X118058Y306330D01*
X116452Y302453D01*
X116452Y298257D01*
X118058Y294380D01*
X121025Y291413D01*
X124902Y289807D01*
X129098Y289807D01*
X132975Y291413D01*
X135942Y294380D01*
X137548Y298257D01*
X137548Y302812D01*
X137542Y302839D01*
X137691Y303634D01*
X138137Y304308D01*
X138567Y304738D01*
X139137Y305139D01*
X139923Y305331D01*
X140721Y305202D01*
X141406Y304772D01*
X141868Y304108D01*
X142036Y303317D01*
X141881Y302523D01*
X141852Y302453D01*
X141852Y298257D01*
X143458Y294380D01*
X146679Y291159D01*
X146702Y291144D01*
X147159Y290477D01*
X147320Y289684D01*
X147320Y287915D01*
X148093Y286047D01*
X162857Y271283D01*
X164725Y270510D01*
G37*
G36*
X61722Y340986D02*
X69557Y340986D01*
X69557Y345829D01*
X68069Y347317D01*
X61722Y347317D01*
X61722Y340986D01*
G37*
G36*
X27599Y340986D02*
X35433Y340986D01*
X35433Y347317D01*
X29086Y347317D01*
X27599Y345829D01*
X27599Y340986D01*
G37*
G36*
X219091Y334280D02*
X219563Y334280D01*
X219563Y344838D01*
X209005Y344838D01*
X209005Y344366D01*
X210922Y339738D01*
X214463Y336197D01*
X219091Y334280D01*
G37*
G36*
X74102Y289807D02*
X78298Y289807D01*
X82175Y291413D01*
X85142Y294380D01*
X86748Y298257D01*
X86748Y302453D01*
X85142Y306330D01*
X82175Y309297D01*
X78298Y310903D01*
X74102Y310903D01*
X70745Y309513D01*
X70226Y309396D01*
X70034Y309106D01*
X67258Y306330D01*
X65652Y302453D01*
X65652Y298257D01*
X67258Y294380D01*
X70225Y291413D01*
X74102Y289807D01*
G37*
G36*
X179832Y302387D02*
X187826Y302387D01*
X186312Y306042D01*
X183487Y308867D01*
X179832Y310381D01*
X179832Y302387D01*
G37*
G36*
X103632Y302387D02*
X111626Y302387D01*
X110112Y306042D01*
X107287Y308867D01*
X103632Y310381D01*
X103632Y302387D01*
G37*
G36*
X91574Y302387D02*
X99568Y302387D01*
X99568Y310381D01*
X95913Y308867D01*
X93088Y306042D01*
X91574Y302387D01*
G37*
G36*
X377674Y290932D02*
X385668Y290932D01*
X385668Y298926D01*
X382013Y297412D01*
X379188Y294587D01*
X377674Y290932D01*
G37*
G36*
X103632Y298323D02*
X103632Y290329D01*
X107287Y291843D01*
X110112Y294668D01*
X111626Y298323D01*
X103632Y298323D01*
G37*
G36*
X95913Y291843D02*
X99568Y290329D01*
X99568Y298323D01*
X91574Y298323D01*
X93088Y294668D01*
X95913Y291843D01*
G37*
G36*
X382013Y280388D02*
X385668Y278874D01*
X385668Y286868D01*
X377674Y286868D01*
X379188Y283213D01*
X382013Y280388D01*
G37*
G36*
X360202Y252952D02*
X364398Y252952D01*
X368275Y254558D01*
X371242Y257525D01*
X372848Y261402D01*
X372848Y265598D01*
X371242Y269475D01*
X368275Y272442D01*
X364398Y274048D01*
X360202Y274048D01*
X356325Y272442D01*
X353358Y269475D01*
X351752Y265598D01*
X351752Y261402D01*
X353358Y257525D01*
X356325Y254558D01*
X360202Y252952D01*
G37*
G36*
X352274Y240132D02*
X360268Y240132D01*
X360268Y248126D01*
X356613Y246612D01*
X353788Y243787D01*
X352274Y240132D01*
G37*
G36*
X364332Y240132D02*
X372326Y240132D01*
X370812Y243787D01*
X367987Y246612D01*
X364332Y248126D01*
X364332Y240132D01*
G37*
G36*
X364332Y236068D02*
X364332Y228074D01*
X367987Y229588D01*
X370812Y232413D01*
X372326Y236068D01*
X364332Y236068D01*
G37*
G36*
X356613Y229588D02*
X360268Y228074D01*
X360268Y236068D01*
X352274Y236068D01*
X353788Y232413D01*
X356613Y229588D01*
G37*
G36*
X276851Y187452D02*
X283182Y187452D01*
X283182Y193799D01*
X281694Y195287D01*
X276851Y195287D01*
X276851Y187452D01*
G37*
G36*
X86351Y187452D02*
X92682Y187452D01*
X92682Y193799D01*
X91194Y195287D01*
X86351Y195287D01*
X86351Y187452D01*
G37*
G36*
X276851Y152694D02*
X281694Y152694D01*
X283182Y154181D01*
X283182Y160528D01*
X276851Y160528D01*
X276851Y152694D01*
G37*
G36*
X86351Y152694D02*
X91194Y152694D01*
X92682Y154181D01*
X92682Y160528D01*
X86351Y160528D01*
X86351Y152694D01*
G37*
G36*
X280121Y118752D02*
X284079Y118752D01*
X287735Y120266D01*
X290663Y123195D01*
X291278Y123616D01*
X292068Y123789D01*
X292863Y123641D01*
X293537Y123195D01*
X296465Y120266D01*
X300121Y118752D01*
X304079Y118752D01*
X307735Y120266D01*
X310534Y123065D01*
X312048Y126721D01*
X312048Y130679D01*
X310534Y134335D01*
X307735Y137134D01*
X304079Y138648D01*
X300121Y138648D01*
X296465Y137134D01*
X293537Y134205D01*
X292922Y133784D01*
X292132Y133611D01*
X291337Y133759D01*
X290663Y134205D01*
X287735Y137134D01*
X284079Y138648D01*
X280121Y138648D01*
X276465Y137134D01*
X273666Y134335D01*
X272152Y130679D01*
X272152Y126721D01*
X273666Y123065D01*
X276465Y120266D01*
X280121Y118752D01*
G37*
G36*
X89621Y118752D02*
X93579Y118752D01*
X97235Y120266D01*
X100163Y123195D01*
X100778Y123616D01*
X101568Y123789D01*
X102363Y123641D01*
X103037Y123195D01*
X105965Y120266D01*
X109621Y118752D01*
X113579Y118752D01*
X117235Y120266D01*
X120034Y123065D01*
X121548Y126721D01*
X121548Y130679D01*
X120034Y134335D01*
X117235Y137134D01*
X113579Y138648D01*
X109621Y138648D01*
X105965Y137134D01*
X103037Y134205D01*
X102422Y133784D01*
X101632Y133611D01*
X100837Y133759D01*
X100163Y134205D01*
X97235Y137134D01*
X93579Y138648D01*
X89621Y138648D01*
X85965Y137134D01*
X83166Y134335D01*
X81652Y130679D01*
X81652Y126721D01*
X83166Y123065D01*
X85965Y120266D01*
X89621Y118752D01*
G37*
G36*
X127224Y130732D02*
X134568Y130732D01*
X134568Y138076D01*
X131253Y136703D01*
X128597Y134047D01*
X127224Y130732D01*
G37*
G36*
X138632Y130732D02*
X145976Y130732D01*
X144603Y134047D01*
X141947Y136703D01*
X138632Y138076D01*
X138632Y130732D01*
G37*
G36*
X317724Y130732D02*
X325068Y130732D01*
X325068Y138076D01*
X321753Y136703D01*
X319097Y134047D01*
X317724Y130732D01*
G37*
G36*
X329132Y130732D02*
X336476Y130732D01*
X335103Y134047D01*
X332447Y136703D01*
X329132Y138076D01*
X329132Y130732D01*
G37*
G36*
X131253Y120697D02*
X134568Y119324D01*
X134568Y126668D01*
X127224Y126668D01*
X128597Y123353D01*
X131253Y120697D01*
G37*
G36*
X329132Y126668D02*
X329132Y119324D01*
X332447Y120697D01*
X335103Y123353D01*
X336476Y126668D01*
X329132Y126668D01*
G37*
G36*
X321753Y120697D02*
X325068Y119324D01*
X325068Y126668D01*
X317724Y126668D01*
X319097Y123353D01*
X321753Y120697D01*
G37*
G36*
X138632Y126668D02*
X138632Y119324D01*
X141947Y120697D01*
X144603Y123353D01*
X145976Y126668D01*
X138632Y126668D01*
G37*
G36*
X169332Y103632D02*
X186420Y103632D01*
X186420Y105403D01*
X183509Y112431D01*
X178131Y117809D01*
X171103Y120720D01*
X169332Y120720D01*
X169332Y103632D01*
G37*
G36*
X148180Y103632D02*
X165268Y103632D01*
X165268Y120720D01*
X163497Y120720D01*
X156469Y117809D01*
X151091Y112431D01*
X148180Y105403D01*
X148180Y103632D01*
G37*
G36*
X359832Y103632D02*
X376920Y103632D01*
X376920Y105403D01*
X374009Y112431D01*
X368631Y117809D01*
X361603Y120720D01*
X359832Y120720D01*
X359832Y103632D01*
G37*
G36*
X207280Y103632D02*
X224368Y103632D01*
X224368Y120720D01*
X222597Y120720D01*
X215569Y117809D01*
X210191Y112431D01*
X207280Y105403D01*
X207280Y103632D01*
G37*
G36*
X338680Y103632D02*
X355768Y103632D01*
X355768Y120720D01*
X353997Y120720D01*
X346969Y117809D01*
X341591Y112431D01*
X338680Y105403D01*
X338680Y103632D01*
G37*
G36*
X16780Y103632D02*
X33868Y103632D01*
X33868Y120720D01*
X32097Y120720D01*
X25069Y117809D01*
X19691Y112431D01*
X16780Y105403D01*
X16780Y103632D01*
G37*
G36*
X228432Y103632D02*
X245520Y103632D01*
X245520Y105403D01*
X242609Y112431D01*
X237231Y117809D01*
X230203Y120720D01*
X228432Y120720D01*
X228432Y103632D01*
G37*
G36*
X37932Y103632D02*
X55020Y103632D01*
X55020Y105403D01*
X52109Y112431D01*
X46731Y117809D01*
X39703Y120720D01*
X37932Y120720D01*
X37932Y103632D01*
G37*
G36*
X359832Y82480D02*
X361603Y82480D01*
X368631Y85391D01*
X374009Y90769D01*
X376920Y97797D01*
X376920Y99568D01*
X359832Y99568D01*
X359832Y82480D01*
G37*
G36*
X353997Y82480D02*
X355768Y82480D01*
X355768Y99568D01*
X338680Y99568D01*
X338680Y97797D01*
X341591Y90769D01*
X346969Y85391D01*
X353997Y82480D01*
G37*
G36*
X228432Y82480D02*
X230203Y82480D01*
X237231Y85391D01*
X242609Y90769D01*
X245520Y97797D01*
X245520Y99568D01*
X228432Y99568D01*
X228432Y82480D01*
G37*
G36*
X222597Y82480D02*
X224368Y82480D01*
X224368Y99568D01*
X207280Y99568D01*
X207280Y97797D01*
X210191Y90769D01*
X215569Y85391D01*
X222597Y82480D01*
G37*
G36*
X169332Y82480D02*
X171103Y82480D01*
X178131Y85391D01*
X183509Y90769D01*
X186420Y97797D01*
X186420Y99568D01*
X169332Y99568D01*
X169332Y82480D01*
G37*
G36*
X163497Y82480D02*
X165268Y82480D01*
X165268Y99568D01*
X148180Y99568D01*
X148180Y97797D01*
X151091Y90769D01*
X156469Y85391D01*
X163497Y82480D01*
G37*
G36*
X37932Y82480D02*
X39703Y82480D01*
X46731Y85391D01*
X52109Y90769D01*
X55020Y97797D01*
X55020Y99568D01*
X37932Y99568D01*
X37932Y82480D01*
G37*
G36*
X32097Y82480D02*
X33868Y82480D01*
X33868Y99568D01*
X16780Y99568D01*
X16780Y97797D01*
X19691Y90769D01*
X25069Y85391D01*
X32097Y82480D01*
G37*
G36*
X14032Y62332D02*
X22026Y62332D01*
X20512Y65987D01*
X17687Y68812D01*
X14032Y70326D01*
X14032Y62332D01*
G37*
G36*
X27374Y62332D02*
X35368Y62332D01*
X35368Y70326D01*
X31713Y68812D01*
X28888Y65987D01*
X27374Y62332D01*
G37*
G36*
X39432Y62332D02*
X47426Y62332D01*
X45912Y65987D01*
X43087Y68812D01*
X39432Y70326D01*
X39432Y62332D01*
G37*
G36*
X14032Y58268D02*
X14032Y50274D01*
X17687Y51788D01*
X20512Y54613D01*
X22026Y58268D01*
X14032Y58268D01*
G37*
G36*
X39432Y58268D02*
X39432Y50274D01*
X43087Y51788D01*
X45912Y54613D01*
X47426Y58268D01*
X39432Y58268D01*
G37*
G36*
X31713Y51788D02*
X35368Y50274D01*
X35368Y58268D01*
X27374Y58268D01*
X28888Y54613D01*
X31713Y51788D01*
G37*
%LPD*%
D10*
X23000Y400000D02*
X22444Y399993D01*
X21889Y399973D01*
X21334Y399940D01*
X20780Y399893D01*
X20228Y399832D01*
X19677Y399759D01*
X19128Y399672D01*
X18581Y399572D01*
X18037Y399458D01*
X17496Y399332D01*
X16958Y399192D01*
X16423Y399040D01*
X15893Y398874D01*
X15366Y398696D01*
X14844Y398505D01*
X14327Y398302D01*
X13815Y398086D01*
X13308Y397858D01*
X12807Y397618D01*
X12311Y397365D01*
X11822Y397101D01*
X11340Y396825D01*
X10864Y396538D01*
X10396Y396239D01*
X9935Y395929D01*
X9481Y395607D01*
X9035Y395275D01*
X8598Y394933D01*
X8169Y394579D01*
X7748Y394216D01*
X7337Y393842D01*
X6934Y393459D01*
X6541Y393066D01*
X6158Y392663D01*
X5784Y392252D01*
X5421Y391831D01*
X5067Y391402D01*
X4725Y390965D01*
X4393Y390519D01*
X4071Y390065D01*
X3761Y389604D01*
X3462Y389136D01*
X3175Y388660D01*
X2899Y388178D01*
X2635Y387689D01*
X2382Y387193D01*
X2142Y386692D01*
X1914Y386185D01*
X1698Y385673D01*
X1495Y385156D01*
X1304Y384634D01*
X1126Y384107D01*
X960Y383577D01*
X808Y383042D01*
X668Y382504D01*
X542Y381963D01*
X428Y381419D01*
X328Y380872D01*
X241Y380323D01*
X168Y379772D01*
X107Y379220D01*
X60Y378666D01*
X27Y378111D01*
X7Y377556D01*
X0Y377000D01*
X23000Y400000D02*
X377000Y400000D01*
X377556Y399993D01*
X378111Y399973D01*
X378666Y399940D01*
X379220Y399893D01*
X379772Y399832D01*
X380323Y399759D01*
X380872Y399672D01*
X381419Y399572D01*
X381963Y399458D01*
X382504Y399332D01*
X383042Y399192D01*
X383577Y399040D01*
X384107Y398874D01*
X384634Y398696D01*
X385156Y398505D01*
X385673Y398302D01*
X386185Y398086D01*
X386692Y397858D01*
X387193Y397618D01*
X387689Y397365D01*
X388178Y397101D01*
X388660Y396825D01*
X389136Y396538D01*
X389604Y396239D01*
X390065Y395929D01*
X390519Y395607D01*
X390965Y395275D01*
X391402Y394933D01*
X391831Y394579D01*
X392252Y394216D01*
X392663Y393842D01*
X393066Y393459D01*
X393459Y393066D01*
X393842Y392663D01*
X394216Y392252D01*
X394579Y391831D01*
X394933Y391402D01*
X395275Y390965D01*
X395607Y390519D01*
X395929Y390065D01*
X396239Y389604D01*
X396538Y389136D01*
X396825Y388660D01*
X397101Y388178D01*
X397365Y387689D01*
X397618Y387193D01*
X397858Y386692D01*
X398086Y386185D01*
X398302Y385673D01*
X398505Y385156D01*
X398696Y384634D01*
X398874Y384107D01*
X399040Y383577D01*
X399192Y383042D01*
X399332Y382504D01*
X399458Y381963D01*
X399572Y381419D01*
X399672Y380872D01*
X399759Y380323D01*
X399832Y379772D01*
X399893Y379220D01*
X399940Y378666D01*
X399973Y378111D01*
X399993Y377556D01*
X400000Y377000D01*
X400000Y23000D01*
X399993Y22444D01*
X399973Y21889D01*
X399940Y21334D01*
X399893Y20780D01*
X399832Y20228D01*
X399759Y19677D01*
X399672Y19128D01*
X399572Y18581D01*
X399458Y18037D01*
X399332Y17496D01*
X399192Y16958D01*
X399040Y16423D01*
X398874Y15893D01*
X398696Y15366D01*
X398505Y14844D01*
X398302Y14327D01*
X398086Y13815D01*
X397858Y13308D01*
X397618Y12807D01*
X397365Y12311D01*
X397101Y11822D01*
X396825Y11340D01*
X396538Y10864D01*
X396239Y10396D01*
X395929Y9935D01*
X395607Y9481D01*
X395275Y9035D01*
X394933Y8598D01*
X394579Y8169D01*
X394216Y7748D01*
X393842Y7337D01*
X393459Y6934D01*
X393066Y6541D01*
X392663Y6158D01*
X392252Y5784D01*
X391831Y5421D01*
X391402Y5067D01*
X390965Y4725D01*
X390519Y4393D01*
X390065Y4071D01*
X389604Y3761D01*
X389136Y3462D01*
X388660Y3175D01*
X388178Y2899D01*
X387689Y2635D01*
X387193Y2382D01*
X386692Y2142D01*
X386185Y1914D01*
X385673Y1698D01*
X385156Y1495D01*
X384634Y1304D01*
X384107Y1126D01*
X383577Y960D01*
X383042Y808D01*
X382504Y668D01*
X381963Y542D01*
X381419Y428D01*
X380872Y328D01*
X380323Y241D01*
X379772Y168D01*
X379220Y107D01*
X378666Y60D01*
X378111Y27D01*
X377556Y7D01*
X377000Y0D01*
X23000Y0D01*
X22444Y7D01*
X21889Y27D01*
X21334Y60D01*
X20780Y107D01*
X20228Y168D01*
X19677Y241D01*
X19128Y328D01*
X18581Y428D01*
X18037Y542D01*
X17496Y668D01*
X16958Y808D01*
X16423Y960D01*
X15893Y1126D01*
X15366Y1304D01*
X14844Y1495D01*
X14327Y1698D01*
X13815Y1914D01*
X13308Y2142D01*
X12807Y2382D01*
X12311Y2635D01*
X11822Y2899D01*
X11340Y3175D01*
X10864Y3462D01*
X10396Y3761D01*
X9935Y4071D01*
X9481Y4393D01*
X9035Y4725D01*
X8598Y5067D01*
X8169Y5421D01*
X7748Y5784D01*
X7337Y6158D01*
X6934Y6541D01*
X6541Y6934D01*
X6158Y7337D01*
X5784Y7748D01*
X5421Y8169D01*
X5067Y8598D01*
X4725Y9035D01*
X4393Y9481D01*
X4071Y9935D01*
X3761Y10396D01*
X3462Y10864D01*
X3175Y11340D01*
X2899Y11822D01*
X2635Y12311D01*
X2382Y12807D01*
X2142Y13308D01*
X1914Y13815D01*
X1698Y14327D01*
X1495Y14844D01*
X1304Y15366D01*
X1126Y15893D01*
X960Y16423D01*
X808Y16958D01*
X668Y17496D01*
X542Y18037D01*
X428Y18581D01*
X328Y19128D01*
X241Y19677D01*
X168Y20228D01*
X107Y20780D01*
X60Y21334D01*
X27Y21889D01*
X7Y22444D01*
X0Y23000D01*
X0Y377000D01*
D11*
X257100Y128700D03*
D12*
X282100Y128700D03*
X302100Y128700D03*
X327100Y128700D03*
D13*
X226400Y101600D03*
X357800Y101600D03*
D11*
X66600Y128700D03*
D12*
X91600Y128700D03*
X111600Y128700D03*
X136600Y128700D03*
D13*
X35900Y101600D03*
X167300Y101600D03*
D14*
X12000Y339700D03*
X12000Y314300D03*
X12000Y288900D03*
X12000Y263500D03*
X12000Y238100D03*
X12000Y60300D03*
X37400Y60300D03*
X362300Y339700D03*
X387700Y339700D03*
X362300Y314300D03*
X387700Y314300D03*
X362300Y288900D03*
X387700Y288900D03*
X387700Y263500D03*
X362300Y238100D03*
X387700Y238100D03*
D10*
X8000Y23000D02*
X8005Y23368D01*
X8018Y23736D01*
X8041Y24103D01*
X8072Y24470D01*
X8113Y24836D01*
X8162Y25201D01*
X8221Y25564D01*
X8288Y25926D01*
X8364Y26287D01*
X8450Y26645D01*
X8543Y27001D01*
X8646Y27354D01*
X8757Y27705D01*
X8877Y28053D01*
X9005Y28398D01*
X9142Y28740D01*
X9287Y29079D01*
X9440Y29413D01*
X9602Y29744D01*
X9771Y30071D01*
X9949Y30393D01*
X10134Y30712D01*
X10327Y31025D01*
X10528Y31334D01*
X10736Y31637D01*
X10952Y31935D01*
X11175Y32228D01*
X11405Y32516D01*
X11642Y32798D01*
X11886Y33073D01*
X12136Y33343D01*
X12393Y33607D01*
X12657Y33864D01*
X12927Y34114D01*
X13202Y34358D01*
X13484Y34595D01*
X13772Y34825D01*
X14065Y35048D01*
X14363Y35264D01*
X14666Y35472D01*
X14975Y35673D01*
X15288Y35866D01*
X15607Y36051D01*
X15929Y36229D01*
X16256Y36398D01*
X16587Y36560D01*
X16921Y36713D01*
X17260Y36858D01*
X17602Y36995D01*
X17947Y37123D01*
X18295Y37243D01*
X18646Y37354D01*
X18999Y37457D01*
X19355Y37550D01*
X19713Y37636D01*
X20074Y37712D01*
X20436Y37779D01*
X20799Y37838D01*
X21164Y37887D01*
X21530Y37928D01*
X21897Y37959D01*
X22264Y37982D01*
X22632Y37995D01*
X23000Y38000D01*
X23368Y37995D01*
X23736Y37982D01*
X24103Y37959D01*
X24470Y37928D01*
X24836Y37887D01*
X25201Y37838D01*
X25564Y37779D01*
X25926Y37712D01*
X26287Y37636D01*
X26645Y37550D01*
X27001Y37457D01*
X27354Y37354D01*
X27705Y37243D01*
X28053Y37123D01*
X28398Y36995D01*
X28740Y36858D01*
X29079Y36713D01*
X29413Y36560D01*
X29744Y36398D01*
X30071Y36229D01*
X30393Y36051D01*
X30712Y35866D01*
X31025Y35673D01*
X31334Y35472D01*
X31637Y35264D01*
X31935Y35048D01*
X32228Y34825D01*
X32516Y34595D01*
X32798Y34358D01*
X33073Y34114D01*
X33343Y33864D01*
X33607Y33607D01*
X33864Y33343D01*
X34114Y33073D01*
X34358Y32798D01*
X34595Y32516D01*
X34825Y32228D01*
X35048Y31935D01*
X35264Y31637D01*
X35472Y31334D01*
X35673Y31025D01*
X35866Y30712D01*
X36051Y30393D01*
X36229Y30071D01*
X36398Y29744D01*
X36560Y29413D01*
X36713Y29079D01*
X36858Y28740D01*
X36995Y28398D01*
X37123Y28053D01*
X37243Y27705D01*
X37354Y27354D01*
X37457Y27001D01*
X37550Y26645D01*
X37636Y26287D01*
X37712Y25926D01*
X37779Y25564D01*
X37838Y25201D01*
X37887Y24836D01*
X37928Y24470D01*
X37959Y24103D01*
X37982Y23736D01*
X37995Y23368D01*
X38000Y23000D01*
X37995Y22632D01*
X37982Y22264D01*
X37959Y21897D01*
X37928Y21530D01*
X37887Y21164D01*
X37838Y20799D01*
X37779Y20436D01*
X37712Y20074D01*
X37636Y19713D01*
X37550Y19355D01*
X37457Y18999D01*
X37354Y18646D01*
X37243Y18295D01*
X37123Y17947D01*
X36995Y17602D01*
X36858Y17260D01*
X36713Y16921D01*
X36560Y16587D01*
X36398Y16256D01*
X36229Y15929D01*
X36051Y15607D01*
X35866Y15288D01*
X35673Y14975D01*
X35472Y14666D01*
X35264Y14363D01*
X35048Y14065D01*
X34825Y13772D01*
X34595Y13484D01*
X34358Y13202D01*
X34114Y12927D01*
X33864Y12657D01*
X33607Y12393D01*
X33343Y12136D01*
X33073Y11886D01*
X32798Y11642D01*
X32516Y11405D01*
X32228Y11175D01*
X31935Y10952D01*
X31637Y10736D01*
X31334Y10528D01*
X31025Y10327D01*
X30712Y10134D01*
X30393Y9949D01*
X30071Y9771D01*
X29744Y9602D01*
X29413Y9440D01*
X29079Y9287D01*
X28740Y9142D01*
X28398Y9005D01*
X28053Y8877D01*
X27705Y8757D01*
X27354Y8646D01*
X27001Y8543D01*
X26645Y8450D01*
X26287Y8364D01*
X25926Y8288D01*
X25564Y8221D01*
X25201Y8162D01*
X24836Y8113D01*
X24470Y8072D01*
X24103Y8041D01*
X23736Y8018D01*
X23368Y8005D01*
X23000Y8000D01*
X22632Y8005D01*
X22264Y8018D01*
X21897Y8041D01*
X21530Y8072D01*
X21164Y8113D01*
X20799Y8162D01*
X20436Y8221D01*
X20074Y8288D01*
X19713Y8364D01*
X19355Y8450D01*
X18999Y8543D01*
X18646Y8646D01*
X18295Y8757D01*
X17947Y8877D01*
X17602Y9005D01*
X17260Y9142D01*
X16921Y9287D01*
X16587Y9440D01*
X16256Y9602D01*
X15929Y9771D01*
X15607Y9949D01*
X15288Y10134D01*
X14975Y10327D01*
X14666Y10528D01*
X14363Y10736D01*
X14065Y10952D01*
X13772Y11175D01*
X13484Y11405D01*
X13202Y11642D01*
X12927Y11886D01*
X12657Y12136D01*
X12393Y12393D01*
X12136Y12657D01*
X11886Y12927D01*
X11642Y13202D01*
X11405Y13484D01*
X11175Y13772D01*
X10952Y14065D01*
X10736Y14363D01*
X10528Y14666D01*
X10327Y14975D01*
X10134Y15288D01*
X9949Y15607D01*
X9771Y15929D01*
X9602Y16256D01*
X9440Y16587D01*
X9287Y16921D01*
X9142Y17260D01*
X9005Y17602D01*
X8877Y17947D01*
X8757Y18295D01*
X8646Y18646D01*
X8543Y18999D01*
X8450Y19355D01*
X8364Y19713D01*
X8288Y20074D01*
X8221Y20436D01*
X8162Y20799D01*
X8113Y21164D01*
X8072Y21530D01*
X8041Y21897D01*
X8018Y22264D01*
X8005Y22632D01*
X8000Y23000D01*
X8000Y377000D02*
X8005Y377368D01*
X8018Y377736D01*
X8041Y378103D01*
X8072Y378470D01*
X8113Y378836D01*
X8162Y379201D01*
X8221Y379564D01*
X8288Y379926D01*
X8364Y380287D01*
X8450Y380645D01*
X8543Y381001D01*
X8646Y381354D01*
X8757Y381705D01*
X8877Y382053D01*
X9005Y382398D01*
X9142Y382740D01*
X9287Y383079D01*
X9440Y383413D01*
X9602Y383744D01*
X9771Y384071D01*
X9949Y384393D01*
X10134Y384712D01*
X10327Y385025D01*
X10528Y385334D01*
X10736Y385637D01*
X10952Y385935D01*
X11175Y386228D01*
X11405Y386516D01*
X11642Y386798D01*
X11886Y387073D01*
X12136Y387343D01*
X12393Y387607D01*
X12657Y387864D01*
X12927Y388114D01*
X13202Y388358D01*
X13484Y388595D01*
X13772Y388825D01*
X14065Y389048D01*
X14363Y389264D01*
X14666Y389472D01*
X14975Y389673D01*
X15288Y389866D01*
X15607Y390051D01*
X15929Y390229D01*
X16256Y390398D01*
X16587Y390560D01*
X16921Y390713D01*
X17260Y390858D01*
X17602Y390995D01*
X17947Y391123D01*
X18295Y391243D01*
X18646Y391354D01*
X18999Y391457D01*
X19355Y391550D01*
X19713Y391636D01*
X20074Y391712D01*
X20436Y391779D01*
X20799Y391838D01*
X21164Y391887D01*
X21530Y391928D01*
X21897Y391959D01*
X22264Y391982D01*
X22632Y391995D01*
X23000Y392000D01*
X23368Y391995D01*
X23736Y391982D01*
X24103Y391959D01*
X24470Y391928D01*
X24836Y391887D01*
X25201Y391838D01*
X25564Y391779D01*
X25926Y391712D01*
X26287Y391636D01*
X26645Y391550D01*
X27001Y391457D01*
X27354Y391354D01*
X27705Y391243D01*
X28053Y391123D01*
X28398Y390995D01*
X28740Y390858D01*
X29079Y390713D01*
X29413Y390560D01*
X29744Y390398D01*
X30071Y390229D01*
X30393Y390051D01*
X30712Y389866D01*
X31025Y389673D01*
X31334Y389472D01*
X31637Y389264D01*
X31935Y389048D01*
X32228Y388825D01*
X32516Y388595D01*
X32798Y388358D01*
X33073Y388114D01*
X33343Y387864D01*
X33607Y387607D01*
X33864Y387343D01*
X34114Y387073D01*
X34358Y386798D01*
X34595Y386516D01*
X34825Y386228D01*
X35048Y385935D01*
X35264Y385637D01*
X35472Y385334D01*
X35673Y385025D01*
X35866Y384712D01*
X36051Y384393D01*
X36229Y384071D01*
X36398Y383744D01*
X36560Y383413D01*
X36713Y383079D01*
X36858Y382740D01*
X36995Y382398D01*
X37123Y382053D01*
X37243Y381705D01*
X37354Y381354D01*
X37457Y381001D01*
X37550Y380645D01*
X37636Y380287D01*
X37712Y379926D01*
X37779Y379564D01*
X37838Y379201D01*
X37887Y378836D01*
X37928Y378470D01*
X37959Y378103D01*
X37982Y377736D01*
X37995Y377368D01*
X38000Y377000D01*
X37995Y376632D01*
X37982Y376264D01*
X37959Y375897D01*
X37928Y375530D01*
X37887Y375164D01*
X37838Y374799D01*
X37779Y374436D01*
X37712Y374074D01*
X37636Y373713D01*
X37550Y373355D01*
X37457Y372999D01*
X37354Y372646D01*
X37243Y372295D01*
X37123Y371947D01*
X36995Y371602D01*
X36858Y371260D01*
X36713Y370921D01*
X36560Y370587D01*
X36398Y370256D01*
X36229Y369929D01*
X36051Y369607D01*
X35866Y369288D01*
X35673Y368975D01*
X35472Y368666D01*
X35264Y368363D01*
X35048Y368065D01*
X34825Y367772D01*
X34595Y367484D01*
X34358Y367202D01*
X34114Y366927D01*
X33864Y366657D01*
X33607Y366393D01*
X33343Y366136D01*
X33073Y365886D01*
X32798Y365642D01*
X32516Y365405D01*
X32228Y365175D01*
X31935Y364952D01*
X31637Y364736D01*
X31334Y364528D01*
X31025Y364327D01*
X30712Y364134D01*
X30393Y363949D01*
X30071Y363771D01*
X29744Y363602D01*
X29413Y363440D01*
X29079Y363287D01*
X28740Y363142D01*
X28398Y363005D01*
X28053Y362877D01*
X27705Y362757D01*
X27354Y362646D01*
X27001Y362543D01*
X26645Y362450D01*
X26287Y362364D01*
X25926Y362288D01*
X25564Y362221D01*
X25201Y362162D01*
X24836Y362113D01*
X24470Y362072D01*
X24103Y362041D01*
X23736Y362018D01*
X23368Y362005D01*
X23000Y362000D01*
X22632Y362005D01*
X22264Y362018D01*
X21897Y362041D01*
X21530Y362072D01*
X21164Y362113D01*
X20799Y362162D01*
X20436Y362221D01*
X20074Y362288D01*
X19713Y362364D01*
X19355Y362450D01*
X18999Y362543D01*
X18646Y362646D01*
X18295Y362757D01*
X17947Y362877D01*
X17602Y363005D01*
X17260Y363142D01*
X16921Y363287D01*
X16587Y363440D01*
X16256Y363602D01*
X15929Y363771D01*
X15607Y363949D01*
X15288Y364134D01*
X14975Y364327D01*
X14666Y364528D01*
X14363Y364736D01*
X14065Y364952D01*
X13772Y365175D01*
X13484Y365405D01*
X13202Y365642D01*
X12927Y365886D01*
X12657Y366136D01*
X12393Y366393D01*
X12136Y366657D01*
X11886Y366927D01*
X11642Y367202D01*
X11405Y367484D01*
X11175Y367772D01*
X10952Y368065D01*
X10736Y368363D01*
X10528Y368666D01*
X10327Y368975D01*
X10134Y369288D01*
X9949Y369607D01*
X9771Y369929D01*
X9602Y370256D01*
X9440Y370587D01*
X9287Y370921D01*
X9142Y371260D01*
X9005Y371602D01*
X8877Y371947D01*
X8757Y372295D01*
X8646Y372646D01*
X8543Y372999D01*
X8450Y373355D01*
X8364Y373713D01*
X8288Y374074D01*
X8221Y374436D01*
X8162Y374799D01*
X8113Y375164D01*
X8072Y375530D01*
X8041Y375897D01*
X8018Y376264D01*
X8005Y376632D01*
X8000Y377000D01*
X362000Y23000D02*
X362005Y23368D01*
X362018Y23736D01*
X362041Y24103D01*
X362072Y24470D01*
X362113Y24836D01*
X362162Y25201D01*
X362221Y25564D01*
X362288Y25926D01*
X362364Y26287D01*
X362450Y26645D01*
X362543Y27001D01*
X362646Y27354D01*
X362757Y27705D01*
X362877Y28053D01*
X363005Y28398D01*
X363142Y28740D01*
X363287Y29079D01*
X363440Y29413D01*
X363602Y29744D01*
X363771Y30071D01*
X363949Y30393D01*
X364134Y30712D01*
X364327Y31025D01*
X364528Y31334D01*
X364736Y31637D01*
X364952Y31935D01*
X365175Y32228D01*
X365405Y32516D01*
X365642Y32798D01*
X365886Y33073D01*
X366136Y33343D01*
X366393Y33607D01*
X366657Y33864D01*
X366927Y34114D01*
X367202Y34358D01*
X367484Y34595D01*
X367772Y34825D01*
X368065Y35048D01*
X368363Y35264D01*
X368666Y35472D01*
X368975Y35673D01*
X369288Y35866D01*
X369607Y36051D01*
X369929Y36229D01*
X370256Y36398D01*
X370587Y36560D01*
X370921Y36713D01*
X371260Y36858D01*
X371602Y36995D01*
X371947Y37123D01*
X372295Y37243D01*
X372646Y37354D01*
X372999Y37457D01*
X373355Y37550D01*
X373713Y37636D01*
X374074Y37712D01*
X374436Y37779D01*
X374799Y37838D01*
X375164Y37887D01*
X375530Y37928D01*
X375897Y37959D01*
X376264Y37982D01*
X376632Y37995D01*
X377000Y38000D01*
X377368Y37995D01*
X377736Y37982D01*
X378103Y37959D01*
X378470Y37928D01*
X378836Y37887D01*
X379201Y37838D01*
X379564Y37779D01*
X379926Y37712D01*
X380287Y37636D01*
X380645Y37550D01*
X381001Y37457D01*
X381354Y37354D01*
X381705Y37243D01*
X382053Y37123D01*
X382398Y36995D01*
X382740Y36858D01*
X383079Y36713D01*
X383413Y36560D01*
X383744Y36398D01*
X384071Y36229D01*
X384393Y36051D01*
X384712Y35866D01*
X385025Y35673D01*
X385334Y35472D01*
X385637Y35264D01*
X385935Y35048D01*
X386228Y34825D01*
X386516Y34595D01*
X386798Y34358D01*
X387073Y34114D01*
X387343Y33864D01*
X387607Y33607D01*
X387864Y33343D01*
X388114Y33073D01*
X388358Y32798D01*
X388595Y32516D01*
X388825Y32228D01*
X389048Y31935D01*
X389264Y31637D01*
X389472Y31334D01*
X389673Y31025D01*
X389866Y30712D01*
X390051Y30393D01*
X390229Y30071D01*
X390398Y29744D01*
X390560Y29413D01*
X390713Y29079D01*
X390858Y28740D01*
X390995Y28398D01*
X391123Y28053D01*
X391243Y27705D01*
X391354Y27354D01*
X391457Y27001D01*
X391550Y26645D01*
X391636Y26287D01*
X391712Y25926D01*
X391779Y25564D01*
X391838Y25201D01*
X391887Y24836D01*
X391928Y24470D01*
X391959Y24103D01*
X391982Y23736D01*
X391995Y23368D01*
X392000Y23000D01*
X391995Y22632D01*
X391982Y22264D01*
X391959Y21897D01*
X391928Y21530D01*
X391887Y21164D01*
X391838Y20799D01*
X391779Y20436D01*
X391712Y20074D01*
X391636Y19713D01*
X391550Y19355D01*
X391457Y18999D01*
X391354Y18646D01*
X391243Y18295D01*
X391123Y17947D01*
X390995Y17602D01*
X390858Y17260D01*
X390713Y16921D01*
X390560Y16587D01*
X390398Y16256D01*
X390229Y15929D01*
X390051Y15607D01*
X389866Y15288D01*
X389673Y14975D01*
X389472Y14666D01*
X389264Y14363D01*
X389048Y14065D01*
X388825Y13772D01*
X388595Y13484D01*
X388358Y13202D01*
X388114Y12927D01*
X387864Y12657D01*
X387607Y12393D01*
X387343Y12136D01*
X387073Y11886D01*
X386798Y11642D01*
X386516Y11405D01*
X386228Y11175D01*
X385935Y10952D01*
X385637Y10736D01*
X385334Y10528D01*
X385025Y10327D01*
X384712Y10134D01*
X384393Y9949D01*
X384071Y9771D01*
X383744Y9602D01*
X383413Y9440D01*
X383079Y9287D01*
X382740Y9142D01*
X382398Y9005D01*
X382053Y8877D01*
X381705Y8757D01*
X381354Y8646D01*
X381001Y8543D01*
X380645Y8450D01*
X380287Y8364D01*
X379926Y8288D01*
X379564Y8221D01*
X379201Y8162D01*
X378836Y8113D01*
X378470Y8072D01*
X378103Y8041D01*
X377736Y8018D01*
X377368Y8005D01*
X377000Y8000D01*
X376632Y8005D01*
X376264Y8018D01*
X375897Y8041D01*
X375530Y8072D01*
X375164Y8113D01*
X374799Y8162D01*
X374436Y8221D01*
X374074Y8288D01*
X373713Y8364D01*
X373355Y8450D01*
X372999Y8543D01*
X372646Y8646D01*
X372295Y8757D01*
X371947Y8877D01*
X371602Y9005D01*
X371260Y9142D01*
X370921Y9287D01*
X370587Y9440D01*
X370256Y9602D01*
X369929Y9771D01*
X369607Y9949D01*
X369288Y10134D01*
X368975Y10327D01*
X368666Y10528D01*
X368363Y10736D01*
X368065Y10952D01*
X367772Y11175D01*
X367484Y11405D01*
X367202Y11642D01*
X366927Y11886D01*
X366657Y12136D01*
X366393Y12393D01*
X366136Y12657D01*
X365886Y12927D01*
X365642Y13202D01*
X365405Y13484D01*
X365175Y13772D01*
X364952Y14065D01*
X364736Y14363D01*
X364528Y14666D01*
X364327Y14975D01*
X364134Y15288D01*
X363949Y15607D01*
X363771Y15929D01*
X363602Y16256D01*
X363440Y16587D01*
X363287Y16921D01*
X363142Y17260D01*
X363005Y17602D01*
X362877Y17947D01*
X362757Y18295D01*
X362646Y18646D01*
X362543Y18999D01*
X362450Y19355D01*
X362364Y19713D01*
X362288Y20074D01*
X362221Y20436D01*
X362162Y20799D01*
X362113Y21164D01*
X362072Y21530D01*
X362041Y21897D01*
X362018Y22264D01*
X362005Y22632D01*
X362000Y23000D01*
X362000Y377000D02*
X362005Y377368D01*
X362018Y377736D01*
X362041Y378103D01*
X362072Y378470D01*
X362113Y378836D01*
X362162Y379201D01*
X362221Y379564D01*
X362288Y379926D01*
X362364Y380287D01*
X362450Y380645D01*
X362543Y381001D01*
X362646Y381354D01*
X362757Y381705D01*
X362877Y382053D01*
X363005Y382398D01*
X363142Y382740D01*
X363287Y383079D01*
X363440Y383413D01*
X363602Y383744D01*
X363771Y384071D01*
X363949Y384393D01*
X364134Y384712D01*
X364327Y385025D01*
X364528Y385334D01*
X364736Y385637D01*
X364952Y385935D01*
X365175Y386228D01*
X365405Y386516D01*
X365642Y386798D01*
X365886Y387073D01*
X366136Y387343D01*
X366393Y387607D01*
X366657Y387864D01*
X366927Y388114D01*
X367202Y388358D01*
X367484Y388595D01*
X367772Y388825D01*
X368065Y389048D01*
X368363Y389264D01*
X368666Y389472D01*
X368975Y389673D01*
X369288Y389866D01*
X369607Y390051D01*
X369929Y390229D01*
X370256Y390398D01*
X370587Y390560D01*
X370921Y390713D01*
X371260Y390858D01*
X371602Y390995D01*
X371947Y391123D01*
X372295Y391243D01*
X372646Y391354D01*
X372999Y391457D01*
X373355Y391550D01*
X373713Y391636D01*
X374074Y391712D01*
X374436Y391779D01*
X374799Y391838D01*
X375164Y391887D01*
X375530Y391928D01*
X375897Y391959D01*
X376264Y391982D01*
X376632Y391995D01*
X377000Y392000D01*
X377368Y391995D01*
X377736Y391982D01*
X378103Y391959D01*
X378470Y391928D01*
X378836Y391887D01*
X379201Y391838D01*
X379564Y391779D01*
X379926Y391712D01*
X380287Y391636D01*
X380645Y391550D01*
X381001Y391457D01*
X381354Y391354D01*
X381705Y391243D01*
X382053Y391123D01*
X382398Y390995D01*
X382740Y390858D01*
X383079Y390713D01*
X383413Y390560D01*
X383744Y390398D01*
X384071Y390229D01*
X384393Y390051D01*
X384712Y389866D01*
X385025Y389673D01*
X385334Y389472D01*
X385637Y389264D01*
X385935Y389048D01*
X386228Y388825D01*
X386516Y388595D01*
X386798Y388358D01*
X387073Y388114D01*
X387343Y387864D01*
X387607Y387607D01*
X387864Y387343D01*
X388114Y387073D01*
X388358Y386798D01*
X388595Y386516D01*
X388825Y386228D01*
X389048Y385935D01*
X389264Y385637D01*
X389472Y385334D01*
X389673Y385025D01*
X389866Y384712D01*
X390051Y384393D01*
X390229Y384071D01*
X390398Y383744D01*
X390560Y383413D01*
X390713Y383079D01*
X390858Y382740D01*
X390995Y382398D01*
X391123Y382053D01*
X391243Y381705D01*
X391354Y381354D01*
X391457Y381001D01*
X391550Y380645D01*
X391636Y380287D01*
X391712Y379926D01*
X391779Y379564D01*
X391838Y379201D01*
X391887Y378836D01*
X391928Y378470D01*
X391959Y378103D01*
X391982Y377736D01*
X391995Y377368D01*
X392000Y377000D01*
X391995Y376632D01*
X391982Y376264D01*
X391959Y375897D01*
X391928Y375530D01*
X391887Y375164D01*
X391838Y374799D01*
X391779Y374436D01*
X391712Y374074D01*
X391636Y373713D01*
X391550Y373355D01*
X391457Y372999D01*
X391354Y372646D01*
X391243Y372295D01*
X391123Y371947D01*
X390995Y371602D01*
X390858Y371260D01*
X390713Y370921D01*
X390560Y370587D01*
X390398Y370256D01*
X390229Y369929D01*
X390051Y369607D01*
X389866Y369288D01*
X389673Y368975D01*
X389472Y368666D01*
X389264Y368363D01*
X389048Y368065D01*
X388825Y367772D01*
X388595Y367484D01*
X388358Y367202D01*
X388114Y366927D01*
X387864Y366657D01*
X387607Y366393D01*
X387343Y366136D01*
X387073Y365886D01*
X386798Y365642D01*
X386516Y365405D01*
X386228Y365175D01*
X385935Y364952D01*
X385637Y364736D01*
X385334Y364528D01*
X385025Y364327D01*
X384712Y364134D01*
X384393Y363949D01*
X384071Y363771D01*
X383744Y363602D01*
X383413Y363440D01*
X383079Y363287D01*
X382740Y363142D01*
X382398Y363005D01*
X382053Y362877D01*
X381705Y362757D01*
X381354Y362646D01*
X381001Y362543D01*
X380645Y362450D01*
X380287Y362364D01*
X379926Y362288D01*
X379564Y362221D01*
X379201Y362162D01*
X378836Y362113D01*
X378470Y362072D01*
X378103Y362041D01*
X377736Y362018D01*
X377368Y362005D01*
X377000Y362000D01*
X376632Y362005D01*
X376264Y362018D01*
X375897Y362041D01*
X375530Y362072D01*
X375164Y362113D01*
X374799Y362162D01*
X374436Y362221D01*
X374074Y362288D01*
X373713Y362364D01*
X373355Y362450D01*
X372999Y362543D01*
X372646Y362646D01*
X372295Y362757D01*
X371947Y362877D01*
X371602Y363005D01*
X371260Y363142D01*
X370921Y363287D01*
X370587Y363440D01*
X370256Y363602D01*
X369929Y363771D01*
X369607Y363949D01*
X369288Y364134D01*
X368975Y364327D01*
X368666Y364528D01*
X368363Y364736D01*
X368065Y364952D01*
X367772Y365175D01*
X367484Y365405D01*
X367202Y365642D01*
X366927Y365886D01*
X366657Y366136D01*
X366393Y366393D01*
X366136Y366657D01*
X365886Y366927D01*
X365642Y367202D01*
X365405Y367484D01*
X365175Y367772D01*
X364952Y368065D01*
X364736Y368363D01*
X364528Y368666D01*
X364327Y368975D01*
X364134Y369288D01*
X363949Y369607D01*
X363771Y369929D01*
X363602Y370256D01*
X363440Y370587D01*
X363287Y370921D01*
X363142Y371260D01*
X363005Y371602D01*
X362877Y371947D01*
X362757Y372295D01*
X362646Y372646D01*
X362543Y372999D01*
X362450Y373355D01*
X362364Y373713D01*
X362288Y374074D01*
X362221Y374436D01*
X362162Y374799D01*
X362113Y375164D01*
X362072Y375530D01*
X362041Y375897D01*
X362018Y376264D01*
X362005Y376632D01*
X362000Y377000D01*
D14*
X362300Y263500D03*
X50800Y300355D03*
X76200Y300355D03*
X101600Y300355D03*
X127000Y300355D03*
X152400Y300355D03*
X177800Y300355D03*
X203200Y300355D03*
X228600Y300355D03*
D15*
X307995Y384870D03*
X221595Y384870D03*
X307995Y346870D03*
X221595Y346870D03*
D16*
X66811Y185420D03*
X84319Y185420D03*
X66811Y162560D03*
X84319Y162560D03*
X257311Y185420D03*
X274819Y185420D03*
X257311Y162560D03*
X274819Y162560D03*
D17*
X37465Y321446D03*
X37465Y338954D03*
X59690Y321446D03*
X59690Y338954D03*
D16*
X202701Y185420D03*
X220209Y185420D03*
D17*
X66675Y241164D03*
X66675Y223656D03*
D18*
X50800Y381000D03*
X24130Y210820D03*
D19*
X84319Y185420D02*
X84319Y162560D01*
X274819Y162560D02*
X274819Y185420D01*
D18*
X354965Y301625D03*
X92710Y205740D03*
X123190Y161290D03*
X298450Y162560D03*
X290830Y175895D03*
X263525Y279400D03*
X196850Y13335D03*
X88900Y12700D03*
X317500Y12700D03*
X88265Y260985D03*
X214630Y239395D03*
X25400Y351707D03*
D20*
X37465Y338954D02*
X59690Y338954D01*
D18*
X180975Y169545D03*
X292735Y201930D03*
X295275Y248920D03*
X369570Y177800D03*
X168910Y262255D03*
X103505Y371392D03*
X317500Y297815D03*
X333375Y279400D03*
X29845Y260985D03*
X244475Y169545D03*
X118110Y274955D03*
D21*
X349600Y339700D02*
X362300Y339700D01*
X349600Y339700D02*
X336043Y326143D01*
X228259Y326143D01*
X203200Y301084D01*
X203200Y300355D01*
X29711Y321989D02*
X29711Y278130D01*
X26625Y325075D02*
X12000Y339700D01*
X26625Y325075D02*
X29711Y321989D01*
X94615Y275590D02*
X184785Y185420D01*
X94615Y275590D02*
X32521Y275590D01*
X66811Y241300D01*
X32521Y275590D02*
X29981Y278130D01*
X29711Y278130D01*
D20*
X30390Y321310D02*
X37465Y321446D01*
X30390Y321310D02*
X26625Y325075D01*
D21*
X37465Y321446D02*
X59690Y321446D01*
X184785Y185420D02*
X202701Y185420D01*
X66811Y241300D02*
X66675Y241164D01*
D19*
X263500Y314300D02*
X362300Y314300D01*
X263500Y314300D02*
X234950Y285750D01*
X173355Y285750D01*
X165735Y293370D01*
X165735Y306070D01*
X158750Y313055D01*
X139700Y313055D01*
X127000Y300355D01*
X176530Y275590D02*
X177800Y275590D01*
X238760Y275590D01*
X252070Y288900D02*
X362300Y288900D01*
X252070Y288900D02*
X238760Y275590D01*
X176530Y275590D02*
X165735Y275590D01*
X152400Y288925D01*
X152400Y300355D01*
D21*
X220209Y185420D02*
X257311Y185420D01*
X257311Y162560D01*
X257311Y128911D01*
X257100Y128700D01*
X66675Y185556D02*
X66675Y223656D01*
X66675Y185556D02*
X66811Y185420D01*
X66811Y162560D01*
X66811Y128911D01*
X66600Y128700D01*
M02*
